<?xml version="1.0" encoding="UTF-8"?>
<!DOCTYPE svg PUBLIC "-//W3C//DTD SVG 1.1//EN" "http://www.w3.org/Graphics/SVG/1.1/DTD/svg11.dtd">
<svg xmlns="http://www.w3.org/2000/svg" version="1.1" width="106px" height="95px" style="shape-rendering:geometricPrecision; text-rendering:geometricPrecision; image-rendering:optimizeQuality; fill-rule:evenodd; clip-rule:evenodd" xmlns:xlink="http://www.w3.org/1999/xlink">
<g><path style="opacity:1" fill="#4e4ffd" d="M -0.5,-0.5 C 34.8333,-0.5 70.1667,-0.5 105.5,-0.5C 105.5,31.1667 105.5,62.8333 105.5,94.5C 70.1667,94.5 34.8333,94.5 -0.5,94.5C -0.5,62.8333 -0.5,31.1667 -0.5,-0.5 Z"/></g>
<g><path style="opacity:1" fill="#4e50e8" d="M 61.5,6.5 C 60.1667,6.5 58.8333,6.5 57.5,6.5C 50.883,5.11252 44.2164,5.44586 37.5,7.5C 38.0577,6.21009 39.0577,5.37675 40.5,5C 47.1667,4.33333 53.8333,4.33333 60.5,5C 61.056,5.38258 61.3893,5.88258 61.5,6.5 Z"/></g>
<g><path style="opacity:1" fill="#7374e5" d="M 57.5,6.5 C 53.1539,6.33432 48.8206,6.50098 44.5,7C 42.2774,7.56619 40.2774,8.39953 38.5,9.5C 37.8333,9.5 37.1667,9.5 36.5,9.5C 36.8333,8.83333 37.1667,8.16667 37.5,7.5C 44.2164,5.44586 50.883,5.11252 57.5,6.5 Z"/></g>
<g><path style="opacity:1" fill="#9292f6" d="M 57.5,7.5 C 57.5,7.16667 57.5,6.83333 57.5,6.5C 58.8333,6.5 60.1667,6.5 61.5,6.5C 61.5,7.16667 61.8333,7.5 62.5,7.5C 62.5,7.83333 62.5,8.16667 62.5,8.5C 60.7085,8.63404 59.0418,8.30071 57.5,7.5 Z"/></g>
<g><path style="opacity:1" fill="#c5c6f7" d="M 57.5,6.5 C 57.5,6.83333 57.5,7.16667 57.5,7.5C 51.044,7.23192 44.7107,7.89859 38.5,9.5C 40.2774,8.39953 42.2774,7.56619 44.5,7C 48.8206,6.50098 53.1539,6.33432 57.5,6.5 Z"/></g>
<g><path style="opacity:1" fill="#fdfdfe" d="M 57.5,7.5 C 59.0418,8.30071 60.7085,8.63404 62.5,8.5C 62.8333,8.5 63.1667,8.5 63.5,8.5C 63.5,8.83333 63.5,9.16667 63.5,9.5C 66.3493,11.6446 69.3493,13.6446 72.5,15.5C 73.7362,16.2458 75.0695,16.5792 76.5,16.5C 77.5,16.8333 78.1667,17.5 78.5,18.5C 79.0798,20.7488 80.4131,22.4154 82.5,23.5C 84.5609,29.035 86.3942,34.7017 88,40.5C 88.4986,44.1516 88.6653,47.8183 88.5,51.5C 87.6993,53.0418 87.366,54.7085 87.5,56.5C 86.5082,58.4561 85.5082,60.4561 84.5,62.5C 82.5923,63.4856 81.5923,65.1523 81.5,67.5C 81.5,67.8333 81.5,68.1667 81.5,68.5C 79.5,68.5 78.5,69.5 78.5,71.5C 76.5,71.5 75.5,72.5 75.5,74.5C 73.326,74.7497 71.6594,75.7497 70.5,77.5C 70.1667,77.5 69.8333,77.5 69.5,77.5C 66.8952,77.6206 64.8952,78.6206 63.5,80.5C 62.209,80.2627 61.209,80.596 60.5,81.5C 53.1319,81.6831 45.7985,81.3498 38.5,80.5C 37.8333,80.5 37.1667,80.5 36.5,80.5C 35.3406,78.7497 33.674,77.7497 31.5,77.5C 30.8333,77.1667 30.1667,76.8333 29.5,76.5C 28.8333,75.1667 27.8333,74.1667 26.5,73.5C 26.1583,72.6618 25.4916,72.3284 24.5,72.5C 23.5806,69.9108 21.914,67.9108 19.5,66.5C 19.0113,65.0048 18.3446,63.6715 17.5,62.5C 17.5,61.5 17.5,60.5 17.5,59.5C 17.067,56.8344 16.567,54.1677 16,51.5C 15.6174,50.944 15.1174,50.6107 14.5,50.5C 14.3599,44.4638 14.6932,38.4638 15.5,32.5C 16.6737,31.4863 17.3404,30.153 17.5,28.5C 19.2503,27.3406 20.2503,25.674 20.5,23.5C 23.5,19.8333 26.8333,16.5 30.5,13.5C 33.5084,12.7695 36.175,11.4362 38.5,9.5C 44.7107,7.89859 51.044,7.23192 57.5,7.5 Z"/></g>
<g><path style="opacity:1" fill="#8484ec" d="M 63.5,9.5 C 63.5,9.16667 63.5,8.83333 63.5,8.5C 66.3126,8.02458 68.3126,9.02458 69.5,11.5C 67.6854,10.3702 65.6854,9.70356 63.5,9.5 Z"/></g>
<g><path style="opacity:1" fill="#5555e7" d="M 62.5,8.5 C 62.5,8.16667 62.5,7.83333 62.5,7.5C 66.9955,7.09251 70.6621,8.42585 73.5,11.5C 72.8333,11.5 72.1667,11.5 71.5,11.5C 70.8333,11.5 70.1667,11.5 69.5,11.5C 68.3126,9.02458 66.3126,8.02458 63.5,8.5C 63.1667,8.5 62.8333,8.5 62.5,8.5 Z"/></g>
<g><path style="opacity:1" fill="#8987f0" d="M 32.5,9.5 C 33.1667,9.5 33.8333,9.5 34.5,9.5C 33.7377,11.2624 32.4044,12.2624 30.5,12.5C 31.1667,11.5 31.8333,10.5 32.5,9.5 Z"/></g>
<g><path style="opacity:1" fill="#dcdbfc" d="M 34.5,9.5 C 35.1667,9.5 35.8333,9.5 36.5,9.5C 37.1667,9.5 37.8333,9.5 38.5,9.5C 36.175,11.4362 33.5084,12.7695 30.5,13.5C 30.5,13.1667 30.5,12.8333 30.5,12.5C 32.4044,12.2624 33.7377,11.2624 34.5,9.5 Z"/></g>
<g><path style="opacity:1" fill="#6c6ce8" d="M 71.5,11.5 C 72.1667,11.5 72.8333,11.5 73.5,11.5C 76.5431,13.5433 78.8764,16.2099 80.5,19.5C 79.8333,19.1667 79.1667,18.8333 78.5,18.5C 78.1667,17.5 77.5,16.8333 76.5,16.5C 74.4622,15.2459 72.7956,13.5792 71.5,11.5 Z"/></g>
<g><path style="opacity:1" fill="#dadafc" d="M 63.5,9.5 C 65.6854,9.70356 67.6854,10.3702 69.5,11.5C 70.1667,11.5 70.8333,11.5 71.5,11.5C 72.7956,13.5792 74.4622,15.2459 76.5,16.5C 75.0695,16.5792 73.7362,16.2458 72.5,15.5C 69.3493,13.6446 66.3493,11.6446 63.5,9.5 Z"/></g>
<g><path style="opacity:1" fill="#5a5ae9" d="M 32.5,9.5 C 31.8333,10.5 31.1667,11.5 30.5,12.5C 25.8333,15.1667 22.1667,18.8333 19.5,23.5C 18.8333,24.5 18.1667,25.5 17.5,26.5C 15.9261,28.1016 15.2594,30.1016 15.5,32.5C 14.8333,33.5 14.1667,34.5 13.5,35.5C 12.8124,30.6232 13.9791,26.2899 17,22.5C 19.7342,19.2229 22.5676,16.0562 25.5,13C 27.3091,10.7621 29.6424,9.59544 32.5,9.5 Z"/></g>
<g><path style="opacity:1" fill="#b0aff7" d="M 30.5,12.5 C 30.5,12.8333 30.5,13.1667 30.5,13.5C 26.8333,16.5 23.5,19.8333 20.5,23.5C 20.1667,23.5 19.8333,23.5 19.5,23.5C 22.1667,18.8333 25.8333,15.1667 30.5,12.5 Z"/></g>
<g><path style="opacity:1" fill="#c0c0fa" d="M 78.5,18.5 C 79.1667,18.8333 79.8333,19.1667 80.5,19.5C 80.8333,20.5 81.5,21.1667 82.5,21.5C 82.5,22.1667 82.5,22.8333 82.5,23.5C 80.4131,22.4154 79.0798,20.7488 78.5,18.5 Z"/></g>
<g><path style="opacity:1" fill="#d7d8fc" d="M 19.5,23.5 C 19.8333,23.5 20.1667,23.5 20.5,23.5C 20.2503,25.674 19.2503,27.3406 17.5,28.5C 17.5,27.8333 17.5,27.1667 17.5,26.5C 18.1667,25.5 18.8333,24.5 19.5,23.5 Z"/></g>
<g><path style="opacity:1" fill="#d6d5f9" d="M 82.5,23.5 C 88.5664,32.0381 90.5664,41.3714 88.5,51.5C 88.6653,47.8183 88.4986,44.1516 88,40.5C 86.3942,34.7017 84.5609,29.035 82.5,23.5 Z"/></g>
<g><path style="opacity:1" fill="#b6b6f6" d="M 17.5,26.5 C 17.5,27.1667 17.5,27.8333 17.5,28.5C 17.3404,30.153 16.6737,31.4863 15.5,32.5C 15.2594,30.1016 15.9261,28.1016 17.5,26.5 Z"/></g>
<g><path style="opacity:1" fill="#6a68e9" d="M 82.5,21.5 C 83.6431,21.9081 84.6431,22.5748 85.5,23.5C 90.5694,32.5447 92.4027,42.2114 91,52.5C 90.0513,54.0931 88.8846,55.4264 87.5,56.5C 87.366,54.7085 87.6993,53.0418 88.5,51.5C 90.5664,41.3714 88.5664,32.0381 82.5,23.5C 82.5,22.8333 82.5,22.1667 82.5,21.5 Z"/></g>
<g><path style="opacity:1" fill="#5757df" d="M 12.5,35.5 C 12.2175,40.9265 12.5509,46.2599 13.5,51.5C 13.5,52.5 13.5,53.5 13.5,54.5C 11.9608,51.1354 11.2942,47.4687 11.5,43.5C 11.5025,40.6445 11.8359,37.9779 12.5,35.5 Z"/></g>
<g><path style="opacity:1" fill="#fcfbd4" d="M 61.5,35.5 C 61.8168,39.7016 61.4834,43.7016 60.5,47.5C 60.6653,43.8183 60.4986,40.1516 60,36.5C 56.9269,35.3832 53.7603,35.2165 50.5,36C 50.0426,36.414 49.7093,36.914 49.5,37.5C 50.6888,38.4287 52.0222,38.762 53.5,38.5C 52.3937,43.277 49.727,46.9437 45.5,49.5C 46.365,50.5827 47.365,50.7494 48.5,50C 50.7162,47.4465 53.2162,45.2799 56,43.5C 57.0299,43.8361 57.5299,44.5028 57.5,45.5C 56.448,45.3505 55.448,45.5172 54.5,46C 51.5233,50.3129 47.5233,52.8129 42.5,53.5C 42.5,52.5 42.5,51.5 42.5,50.5C 44.5456,47.8561 47.0456,45.5227 50,43.5C 50.3449,41.3228 49.8449,39.3228 48.5,37.5C 48.6082,36.5581 48.9415,35.7247 49.5,35C 53.5874,34.2375 57.5874,34.4042 61.5,35.5 Z"/></g>
<g><path style="opacity:1" fill="#f8f1a7" d="M 60.5,47.5 C 58.8212,47.7148 57.8212,47.0481 57.5,45.5C 57.5299,44.5028 57.0299,43.8361 56,43.5C 53.2162,45.2799 50.7162,47.4465 48.5,50C 47.365,50.7494 46.365,50.5827 45.5,49.5C 49.727,46.9437 52.3937,43.277 53.5,38.5C 52.0222,38.762 50.6888,38.4287 49.5,37.5C 49.7093,36.914 50.0426,36.414 50.5,36C 53.7603,35.2165 56.9269,35.3832 60,36.5C 60.4986,40.1516 60.6653,43.8183 60.5,47.5 Z"/></g>
<g><path style="opacity:1" fill="#f9ee87" d="M 54.5,38.5 C 55.9187,37.5489 57.5853,37.2155 59.5,37.5C 59.2443,43.5648 57.5776,43.8981 54.5,38.5 Z"/></g>
<g><path style="opacity:1" fill="#bbbaf8" d="M 15.5,32.5 C 14.6932,38.4638 14.3599,44.4638 14.5,50.5C 14.5,50.8333 14.5,51.1667 14.5,51.5C 14.1667,51.5 13.8333,51.5 13.5,51.5C 12.5509,46.2599 12.2175,40.9265 12.5,35.5C 12.8333,35.5 13.1667,35.5 13.5,35.5C 14.1667,34.5 14.8333,33.5 15.5,32.5 Z"/></g>
<g><path style="opacity:1" fill="#fefeee" d="M 61.5,35.5 C 62.647,39.6463 62.8136,43.9796 62,48.5C 60.9805,49.6872 59.8139,50.6872 58.5,51.5C 57.5197,50.0186 56.353,48.6853 55,47.5C 51.7358,52.2741 47.2358,54.6074 41.5,54.5C 41.2322,52.901 41.5655,51.5676 42.5,50.5C 42.5,51.5 42.5,52.5 42.5,53.5C 47.5233,52.8129 51.5233,50.3129 54.5,46C 55.448,45.5172 56.448,45.3505 57.5,45.5C 57.8212,47.0481 58.8212,47.7148 60.5,47.5C 61.4834,43.7016 61.8168,39.7016 61.5,35.5 Z"/></g>
<g><path style="opacity:1" fill="#e9e9fe" d="M 14.5,50.5 C 15.1174,50.6107 15.6174,50.944 16,51.5C 16.567,54.1677 17.067,56.8344 17.5,59.5C 16.8333,59.5 16.1667,59.5 15.5,59.5C 15.5,59.1667 15.5,58.8333 15.5,58.5C 15.3259,56.139 14.9926,53.8056 14.5,51.5C 14.5,51.1667 14.5,50.8333 14.5,50.5 Z"/></g>
<g><path style="opacity:1" fill="#8987f0" d="M 13.5,51.5 C 13.8333,51.5 14.1667,51.5 14.5,51.5C 14.9926,53.8056 15.3259,56.139 15.5,58.5C 15.1667,58.5 14.8333,58.5 14.5,58.5C 13.7659,57.2921 13.4326,55.9587 13.5,54.5C 13.5,53.5 13.5,52.5 13.5,51.5 Z"/></g>
<g><path style="opacity:1" fill="#aaaaf4" d="M 15.5,59.5 C 16.1667,59.5 16.8333,59.5 17.5,59.5C 17.5,60.5 17.5,61.5 17.5,62.5C 16.0937,62.0269 15.427,61.0269 15.5,59.5 Z"/></g>
<g><path style="opacity:1" fill="#9392f2" d="M 87.5,56.5 C 87.4403,59.3408 86.7736,62.0075 85.5,64.5C 84.8333,64.8333 84.1667,65.1667 83.5,65.5C 83.5569,64.391 83.8902,63.391 84.5,62.5C 85.5082,60.4561 86.5082,58.4561 87.5,56.5 Z"/></g>
<g><path style="opacity:1" fill="#cdcefb" d="M 84.5,62.5 C 83.8902,63.391 83.5569,64.391 83.5,65.5C 83.1667,66.5 82.5,67.1667 81.5,67.5C 81.5923,65.1523 82.5923,63.4856 84.5,62.5 Z"/></g>
<g><path style="opacity:1" fill="#918eef" d="M 19.5,66.5 C 21.914,67.9108 23.5806,69.9108 24.5,72.5C 22.086,71.0892 20.4194,69.0892 19.5,66.5 Z"/></g>
<g><path style="opacity:1" fill="#5d5beb" d="M 14.5,58.5 C 14.8333,58.5 15.1667,58.5 15.5,58.5C 15.5,58.8333 15.5,59.1667 15.5,59.5C 15.427,61.0269 16.0937,62.0269 17.5,62.5C 18.3446,63.6715 19.0113,65.0048 19.5,66.5C 20.4194,69.0892 22.086,71.0892 24.5,72.5C 25.4916,72.3284 26.1583,72.6618 26.5,73.5C 26.5,75.5 27.5,76.5 29.5,76.5C 30.1667,76.8333 30.8333,77.1667 31.5,77.5C 31.5,77.8333 31.5,78.1667 31.5,78.5C 28.6703,78.3059 26.0037,77.6392 23.5,76.5C 22.6854,72.841 20.5187,70.1744 17,68.5C 14.997,65.5002 14.1636,62.1669 14.5,58.5 Z"/></g>
<g><path style="opacity:1" fill="#a6a5f5" d="M 81.5,68.5 C 80.8333,69.8333 79.8333,70.8333 78.5,71.5C 78.5,69.5 79.5,68.5 81.5,68.5 Z"/></g>
<g><path style="opacity:1" fill="#5e5de8" d="M 85.5,64.5 C 82.4578,69.7219 78.7911,74.5552 74.5,79C 71.2206,80.1486 67.8873,80.9819 64.5,81.5C 64.5,81.1667 64.5,80.8333 64.5,80.5C 66.674,80.2503 68.3406,79.2503 69.5,77.5C 69.8333,77.5 70.1667,77.5 70.5,77.5C 72.674,77.2503 74.3406,76.2503 75.5,74.5C 76.8333,73.8333 77.8333,72.8333 78.5,71.5C 79.8333,70.8333 80.8333,69.8333 81.5,68.5C 81.5,68.1667 81.5,67.8333 81.5,67.5C 82.5,67.1667 83.1667,66.5 83.5,65.5C 84.1667,65.1667 84.8333,64.8333 85.5,64.5 Z"/></g>
<g><path style="opacity:1" fill="#a9a8f3" d="M 78.5,71.5 C 77.8333,72.8333 76.8333,73.8333 75.5,74.5C 75.5,72.5 76.5,71.5 78.5,71.5 Z"/></g>
<g><path style="opacity:1" fill="#8d8bf1" d="M 26.5,73.5 C 27.8333,74.1667 28.8333,75.1667 29.5,76.5C 27.5,76.5 26.5,75.5 26.5,73.5 Z"/></g>
<g><path style="opacity:1" fill="#a7a7f2" d="M 75.5,74.5 C 74.3406,76.2503 72.674,77.2503 70.5,77.5C 71.6594,75.7497 73.326,74.7497 75.5,74.5 Z"/></g>
<g><path style="opacity:1" fill="#c8c7fa" d="M 69.5,77.5 C 68.3406,79.2503 66.674,80.2503 64.5,80.5C 64.1667,80.5 63.8333,80.5 63.5,80.5C 64.8952,78.6206 66.8952,77.6206 69.5,77.5 Z"/></g>
<g><path style="opacity:1" fill="#8c8cf0" d="M 31.5,77.5 C 33.674,77.7497 35.3406,78.7497 36.5,80.5C 35.391,80.4431 34.391,80.1098 33.5,79.5C 32.5084,79.6716 31.8417,79.3382 31.5,78.5C 31.5,78.1667 31.5,77.8333 31.5,77.5 Z"/></g>
<g><path style="opacity:1" fill="#9999f6" d="M 63.5,80.5 C 63.8333,80.5 64.1667,80.5 64.5,80.5C 64.5,80.8333 64.5,81.1667 64.5,81.5C 63.391,81.5569 62.391,81.8902 61.5,82.5C 61.1667,82.5 60.8333,82.5 60.5,82.5C 60.5,82.1667 60.5,81.8333 60.5,81.5C 61.209,80.596 62.209,80.2627 63.5,80.5 Z"/></g>
<g><path style="opacity:1" fill="#b9b9f7" d="M 38.5,80.5 C 45.7985,81.3498 53.1319,81.6831 60.5,81.5C 60.5,81.8333 60.5,82.1667 60.5,82.5C 54.8704,83.5207 49.2037,83.6873 43.5,83C 41.6854,82.2432 40.0188,81.4098 38.5,80.5 Z"/></g>
<g><path style="opacity:1" fill="#595ae7" d="M 33.5,79.5 C 34.391,80.1098 35.391,80.4431 36.5,80.5C 37.1667,80.5 37.8333,80.5 38.5,80.5C 40.0188,81.4098 41.6854,82.2432 43.5,83C 49.2037,83.6873 54.8704,83.5207 60.5,82.5C 60.8333,82.5 61.1667,82.5 61.5,82.5C 60.7375,83.2679 59.7375,83.7679 58.5,84C 51.8333,84.6667 45.1667,84.6667 38.5,84C 35.5088,83.8552 33.8422,82.3552 33.5,79.5 Z"/></g>
</svg>
