<?xml version="1.0" encoding="UTF-8"?>
<!DOCTYPE svg PUBLIC "-//W3C//DTD SVG 1.1//EN" "http://www.w3.org/Graphics/SVG/1.1/DTD/svg11.dtd">
<svg xmlns="http://www.w3.org/2000/svg" version="1.1" width="118px" height="83px" style="shape-rendering:geometricPrecision; text-rendering:geometricPrecision; image-rendering:optimizeQuality; fill-rule:evenodd; clip-rule:evenodd" xmlns:xlink="http://www.w3.org/1999/xlink">
<g><path style="opacity:1" fill="#4e4ffd" d="M -0.5,-0.5 C 38.8333,-0.5 78.1667,-0.5 117.5,-0.5C 117.5,27.1667 117.5,54.8333 117.5,82.5C 78.1667,82.5 38.8333,82.5 -0.5,82.5C -0.5,54.8333 -0.5,27.1667 -0.5,-0.5 Z"/></g>
<g><path style="opacity:1" fill="#a7a1a5" d="M 89.5,8.5 C 90.8333,18.5 90.8333,28.5 89.5,38.5C 89.8269,28.985 89.4936,19.6517 88.5,10.5C 79.5,9.16667 70.5,9.16667 61.5,10.5C 60.5064,19.6517 60.1731,28.985 60.5,38.5C 60.1667,38.5 59.8333,38.5 59.5,38.5C 59.5,38.1667 59.5,37.8333 59.5,37.5C 59.1816,27.9166 59.5149,18.4166 60.5,9C 70.1609,8.5002 79.8276,8.33353 89.5,8.5 Z"/></g>
<g><path style="opacity:1" fill="#f3e886" d="M 88.5,10.5 C 79.8333,10.5 71.1667,10.5 62.5,10.5C 62.5,19.1667 62.5,27.8333 62.5,36.5C 71.1667,36.5 79.8333,36.5 88.5,36.5C 79.6822,37.4933 70.6822,37.8266 61.5,37.5C 61.5,28.5 61.5,19.5 61.5,10.5C 70.5,9.16667 79.5,9.16667 88.5,10.5 Z"/></g>
<g><path style="opacity:1" fill="#5755dc" d="M 89.5,8.5 C 89.5,8.16667 89.5,7.83333 89.5,7.5C 90.8333,7.5 92.1667,7.5 93.5,7.5C 93.6665,17.8387 93.4998,28.172 93,38.5C 92.1841,39.8228 91.0174,40.4894 89.5,40.5C 89.5,40.1667 89.5,39.8333 89.5,39.5C 89.5,39.1667 89.5,38.8333 89.5,38.5C 90.8333,28.5 90.8333,18.5 89.5,8.5 Z"/></g>
<g><path style="opacity:1" fill="#5756b5" d="M 89.5,7.5 C 89.5,7.83333 89.5,8.16667 89.5,8.5C 79.8276,8.33353 70.1609,8.5002 60.5,9C 59.5149,18.4166 59.1816,27.9166 59.5,37.5C 59.1667,37.5 58.8333,37.5 58.5,37.5C 58.5,27.8333 58.5,18.1667 58.5,8.5C 68.7513,7.52502 79.0846,7.19168 89.5,7.5 Z"/></g>
<g><path style="opacity:1" fill="#4f4fe3" d="M 58.5,8.5 C 58.5,18.1667 58.5,27.8333 58.5,37.5C 48.7504,37.1935 39.0838,37.5268 29.5,38.5C 29.5,37.5 29.5,36.5 29.5,35.5C 38.8333,35.5 48.1667,35.5 57.5,35.5C 57.1734,26.3178 57.5067,17.3178 58.5,8.5 Z"/></g>
<g><path style="opacity:1" fill="#706dad" d="M 58.5,37.5 C 58.8333,37.5 59.1667,37.5 59.5,37.5C 59.5,37.8333 59.5,38.1667 59.5,38.5C 49.985,38.1731 40.6517,38.5064 31.5,39.5C 30.507,47.9839 30.1736,56.6506 30.5,65.5C 29.5067,56.6822 29.1734,47.6822 29.5,38.5C 39.0838,37.5268 48.7504,37.1935 58.5,37.5 Z"/></g>
<g><path style="opacity:1" fill="#d3cc94" d="M 61.5,10.5 C 61.5,19.5 61.5,28.5 61.5,37.5C 70.6822,37.8266 79.6822,37.4933 88.5,36.5C 88.5,27.8333 88.5,19.1667 88.5,10.5C 89.4936,19.6517 89.8269,28.985 89.5,38.5C 79.8333,38.5 70.1667,38.5 60.5,38.5C 60.1731,28.985 60.5064,19.6517 61.5,10.5 Z"/></g>
<g><path style="opacity:1" fill="#fded51" d="M 88.5,10.5 C 88.5,19.1667 88.5,27.8333 88.5,36.5C 79.8333,36.5 71.1667,36.5 62.5,36.5C 62.5,27.8333 62.5,19.1667 62.5,10.5C 71.1667,10.5 79.8333,10.5 88.5,10.5 Z"/></g>
<g><path style="opacity:1" fill="#aaa59d" d="M 31.5,39.5 C 31.5,48.8333 31.5,58.1667 31.5,67.5C 40.8333,67.5 50.1667,67.5 59.5,67.5C 59.5,67.8333 59.5,68.1667 59.5,68.5C 49.8333,68.5 40.1667,68.5 30.5,68.5C 30.5,67.5 30.5,66.5 30.5,65.5C 30.1736,56.6506 30.507,47.9839 31.5,39.5 Z"/></g>
<g><path style="opacity:1" fill="#c7c1b1" d="M 31.5,39.5 C 40.6517,38.5064 49.985,38.1731 59.5,38.5C 59.8333,38.5 60.1667,38.5 60.5,38.5C 60.8271,48.3478 60.4938,58.0144 59.5,67.5C 59.8269,57.985 59.4936,48.6517 58.5,39.5C 50.1667,39.5 41.8333,39.5 33.5,39.5C 32.8333,39.5 32.1667,39.5 31.5,39.5 Z"/></g>
<g><path style="opacity:1" fill="#7e7cb1" d="M 60.5,38.5 C 70.1667,38.5 79.8333,38.5 89.5,38.5C 89.5,38.8333 89.5,39.1667 89.5,39.5C 80.1667,39.5 70.8333,39.5 61.5,39.5C 61.5,48.5 61.5,57.5 61.5,66.5C 61.5,67.1667 61.5,67.8333 61.5,68.5C 60.8333,68.5 60.1667,68.5 59.5,68.5C 59.5,68.1667 59.5,67.8333 59.5,67.5C 60.4938,58.0144 60.8271,48.3478 60.5,38.5 Z"/></g>
<g><path style="opacity:1" fill="#4c4cba" d="M 89.5,39.5 C 89.5,39.8333 89.5,40.1667 89.5,40.5C 80.5,40.5 71.5,40.5 62.5,40.5C 62.8264,49.3494 62.493,58.0161 61.5,66.5C 61.5,57.5 61.5,48.5 61.5,39.5C 70.8333,39.5 80.1667,39.5 89.5,39.5 Z"/></g>
<g><path style="opacity:1" fill="#e6df92" d="M 31.5,39.5 C 32.1667,39.5 32.8333,39.5 33.5,39.5C 32.5289,48.4161 32.1956,57.4161 32.5,66.5C 41.1667,66.5 49.8333,66.5 58.5,66.5C 58.5,57.5 58.5,48.5 58.5,39.5C 59.4936,48.6517 59.8269,57.985 59.5,67.5C 50.1667,67.5 40.8333,67.5 31.5,67.5C 31.5,58.1667 31.5,48.8333 31.5,39.5 Z"/></g>
<g><path style="opacity:1" fill="#f9ec6b" d="M 33.5,39.5 C 41.8333,39.5 50.1667,39.5 58.5,39.5C 58.5,48.5 58.5,57.5 58.5,66.5C 49.8333,66.5 41.1667,66.5 32.5,66.5C 32.1956,57.4161 32.5289,48.4161 33.5,39.5 Z"/></g>
<g><path style="opacity:1" fill="#feed4e" d="M 34.5,40.5 C 42.1667,40.5 49.8333,40.5 57.5,40.5C 57.5,48.5 57.5,56.5 57.5,64.5C 49.8333,64.5 42.1667,64.5 34.5,64.5C 34.5,56.5 34.5,48.5 34.5,40.5 Z"/></g>
<g><path style="opacity:1" fill="#5755c6" d="M 29.5,38.5 C 29.1734,47.6822 29.5067,56.6822 30.5,65.5C 30.5,66.5 30.5,67.5 30.5,68.5C 40.1667,68.5 49.8333,68.5 59.5,68.5C 60.1667,68.5 60.8333,68.5 61.5,68.5C 56.7124,69.8279 51.5457,70.4946 46,70.5C 30.4238,74.7566 24.5904,69.0899 28.5,53.5C 28.5007,48.3218 28.834,43.3218 29.5,38.5 Z"/></g>
</svg>
