<?xml version="1.0" encoding="UTF-8"?>
<!DOCTYPE svg PUBLIC "-//W3C//DTD SVG 1.1//EN" "http://www.w3.org/Graphics/SVG/1.1/DTD/svg11.dtd">
<svg xmlns="http://www.w3.org/2000/svg" version="1.1" width="84px" height="71px" style="shape-rendering:geometricPrecision; text-rendering:geometricPrecision; image-rendering:optimizeQuality; fill-rule:evenodd; clip-rule:evenodd" xmlns:xlink="http://www.w3.org/1999/xlink">
<g><path style="opacity:1" fill="#303030" d="M -0.5,-0.5 C 27.5,-0.5 55.5,-0.5 83.5,-0.5C 83.5,23.1667 83.5,46.8333 83.5,70.5C 55.5,70.5 27.5,70.5 -0.5,70.5C -0.5,46.8333 -0.5,23.1667 -0.5,-0.5 Z"/></g>
<g><path style="opacity:1" fill="#939393" d="M 55.5,17.5 C 50.1667,16.1667 44.8333,16.1667 39.5,17.5C 41.6345,15.9666 44.1345,15.2999 47,15.5C 50.1498,15.3603 52.9831,16.027 55.5,17.5 Z"/></g>
<g><path style="opacity:1" fill="#f3f3f3" d="M 26.5,25.5 C 24.9731,25.427 23.9731,26.0937 23.5,27.5C 22.2502,27.5774 21.4169,28.244 21,29.5C 20.2042,32.0385 20.3709,34.3718 21.5,36.5C 23.5883,42.1274 27.5883,43.9608 33.5,42C 34.3734,40.955 35.3734,40.1217 36.5,39.5C 38.2132,38.3646 38.8799,36.698 38.5,34.5C 41.5,34.5 44.5,34.5 47.5,34.5C 47.552,36.9029 47.2186,39.2362 46.5,41.5C 44.3863,43.0189 42.7197,45.0189 41.5,47.5C 35.3624,51.2735 28.6957,52.4402 21.5,51C 20.2949,49.6244 18.9616,48.4577 17.5,47.5C 16.5,45.8333 15.1667,44.5 13.5,43.5C 9.47346,33.5152 11.4735,25.0152 19.5,18C 20.0944,17.5357 20.7611,17.369 21.5,17.5C 23.861,17.3259 26.1944,16.9926 28.5,16.5C 28.9086,19.8555 28.2419,22.8555 26.5,25.5 Z"/></g>
<g><path style="opacity:1" fill="#f4f4f4" d="M 55.5,17.5 C 58.4323,18.7997 60.7656,20.7997 62.5,23.5C 63.9816,28.0145 64.6483,32.6812 64.5,37.5C 64.2964,39.6854 63.6298,41.6854 62.5,43.5C 59.9361,47.1169 56.6028,49.7836 52.5,51.5C 50.8333,51.5 49.1667,51.5 47.5,51.5C 47.5,48.5 47.5,45.5 47.5,42.5C 51.5257,42.3234 54.359,40.3234 56,36.5C 56.5472,30.0249 53.5472,26.0249 47,24.5C 44.0762,24.7071 41.9095,26.0404 40.5,28.5C 38.7868,29.6354 38.1201,31.302 38.5,33.5C 35.5,33.5 32.5,33.5 29.5,33.5C 29.3048,25.8779 32.6381,20.5446 39.5,17.5C 44.8333,16.1667 50.1667,16.1667 55.5,17.5 Z"/></g>
<g><path style="opacity:1" fill="#b1b1b1" d="M 26.5,25.5 C 28.2419,22.8555 28.9086,19.8555 28.5,16.5C 26.1944,16.9926 23.861,17.3259 21.5,17.5C 23.78,15.7773 26.4467,15.1107 29.5,15.5C 29.5,18.8333 29.5,22.1667 29.5,25.5C 28.5,25.5 27.5,25.5 26.5,25.5 Z"/></g>
<g><path style="opacity:1" fill="#363636" d="M 47.5,42.5 C 46.8333,42.5 46.5,42.1667 46.5,41.5C 47.2186,39.2362 47.552,36.9029 47.5,34.5C 45.0521,33.5269 42.3854,33.1936 39.5,33.5C 39.6287,31.7839 39.962,30.1172 40.5,28.5C 41.9095,26.0404 44.0762,24.7071 47,24.5C 53.5472,26.0249 56.5472,30.0249 56,36.5C 54.359,40.3234 51.5257,42.3234 47.5,42.5 Z"/></g>
<g><path style="opacity:1" fill="#b9b9b9" d="M 62.5,23.5 C 63.5585,24.6002 64.3918,25.9336 65,27.5C 65.4983,30.8168 65.665,34.1501 65.5,37.5C 65.1667,37.5 64.8333,37.5 64.5,37.5C 64.6483,32.6812 63.9816,28.0145 62.5,23.5 Z"/></g>
<g><path style="opacity:1" fill="#656565" d="M 23.5,27.5 C 22.0721,30.3033 21.4054,33.3033 21.5,36.5C 20.3709,34.3718 20.2042,32.0385 21,29.5C 21.4169,28.244 22.2502,27.5774 23.5,27.5 Z"/></g>
<g><path style="opacity:1" fill="#919191" d="M 40.5,28.5 C 39.962,30.1172 39.6287,31.7839 39.5,33.5C 42.3854,33.1936 45.0521,33.5269 47.5,34.5C 44.5,34.5 41.5,34.5 38.5,34.5C 38.8799,36.698 38.2132,38.3646 36.5,39.5C 37.038,37.8828 37.3713,36.2161 37.5,34.5C 34.6146,34.8064 31.9479,34.4731 29.5,33.5C 32.5,33.5 35.5,33.5 38.5,33.5C 38.1201,31.302 38.7868,29.6354 40.5,28.5 Z"/></g>
<g><path style="opacity:1" fill="#6d6d6d" d="M 64.5,37.5 C 64.8333,37.5 65.1667,37.5 65.5,37.5C 65.9754,40.3126 64.9754,42.3126 62.5,43.5C 63.6298,41.6854 64.2964,39.6854 64.5,37.5 Z"/></g>
<g><path style="opacity:1" fill="#5a5a5a" d="M 46.5,41.5 C 46.5,42.1667 46.8333,42.5 47.5,42.5C 47.5,45.5 47.5,48.5 47.5,51.5C 49.1667,51.5 50.8333,51.5 52.5,51.5C 50.7354,52.4614 48.7354,52.7947 46.5,52.5C 46.6646,49.4816 46.498,46.4816 46,43.5C 45.2525,45.751 43.7525,47.0844 41.5,47.5C 42.7197,45.0189 44.3863,43.0189 46.5,41.5 Z"/></g>
<g><path style="opacity:1" fill="#646464" d="M 13.5,43.5 C 15.1667,44.5 16.5,45.8333 17.5,47.5C 15.1667,47.1667 13.8333,45.8333 13.5,43.5 Z"/></g>
</svg>
