<?xml version="1.0" encoding="UTF-8"?>
<!DOCTYPE svg PUBLIC "-//W3C//DTD SVG 1.1//EN" "http://www.w3.org/Graphics/SVG/1.1/DTD/svg11.dtd">
<svg xmlns="http://www.w3.org/2000/svg" version="1.1" width="135px" height="96px" style="shape-rendering:geometricPrecision; text-rendering:geometricPrecision; image-rendering:optimizeQuality; fill-rule:evenodd; clip-rule:evenodd" xmlns:xlink="http://www.w3.org/1999/xlink">
<g><path style="opacity:1" fill="#fdfdfe" d="M -0.5,-0.5 C 44.5,-0.5 89.5,-0.5 134.5,-0.5C 134.5,31.5 134.5,63.5 134.5,95.5C 89.5,95.5 44.5,95.5 -0.5,95.5C -0.5,63.5 -0.5,31.5 -0.5,-0.5 Z"/></g>
<g><path style="opacity:1" fill="#d6d5f5" d="M 72.5,16.5 C 68.0685,16.2307 63.7352,16.564 59.5,17.5C 61.223,16.1999 63.3897,15.5332 66,15.5C 68.3608,15.5039 70.5274,15.8373 72.5,16.5 Z"/></g>
<g><path style="opacity:1" fill="#807fe0" d="M 72.5,16.5 C 73.9187,17.4511 75.5853,17.7845 77.5,17.5C 77.8333,18.1667 78.1667,18.8333 78.5,19.5C 74.5821,18.4503 70.5821,17.7837 66.5,17.5C 63.5143,17.3817 60.8476,18.0483 58.5,19.5C 57.8333,19.5 57.1667,19.5 56.5,19.5C 56.8333,18.8333 57.1667,18.1667 57.5,17.5C 58.1667,17.5 58.8333,17.5 59.5,17.5C 63.7352,16.564 68.0685,16.2307 72.5,16.5 Z"/></g>
<g><path style="opacity:1" fill="#d1d1fc" d="M 100.5,17.5 C 99.8333,17.5 99.1667,17.5 98.5,17.5C 96.7354,16.5386 94.7354,16.2053 92.5,16.5C 92.6661,22.1764 92.4994,27.8431 92,33.5C 91.2917,32.6195 90.4584,31.9528 89.5,31.5C 89.5,30.5 89.5,29.5 89.5,28.5C 90.2216,28.9175 90.7216,29.5842 91,30.5C 91.4993,25.5111 91.6659,20.5111 91.5,15.5C 94.1873,15.3359 96.854,15.5026 99.5,16C 100.056,16.3826 100.389,16.8826 100.5,17.5 Z"/></g>
<g><path style="opacity:1" fill="#cccdf7" d="M 57.5,17.5 C 57.1667,18.1667 56.8333,18.8333 56.5,19.5C 55.391,19.5569 54.391,19.8902 53.5,20.5C 54.0347,18.5544 55.368,17.5544 57.5,17.5 Z"/></g>
<g><path style="opacity:1" fill="#d1d3fa" d="M 77.5,17.5 C 79.7488,18.0798 81.4154,19.4131 82.5,21.5C 80.9382,21.2671 79.6049,20.6005 78.5,19.5C 78.1667,18.8333 77.8333,18.1667 77.5,17.5 Z"/></g>
<g><path style="opacity:1" fill="#4e4ffc" d="M 40.5,33.5 C 41.7399,35.9845 42.7399,35.9845 43.5,33.5C 43.5,32.8333 43.5,32.1667 43.5,31.5C 44.5,30.8333 45.5,30.1667 46.5,29.5C 50.2112,25.786 54.2112,22.4526 58.5,19.5C 64.2055,19.1712 69.8722,19.5046 75.5,20.5C 79.503,22.709 83.3363,25.3757 87,28.5C 86.6559,32.478 88.3226,35.1446 92,36.5C 93.0299,36.1639 93.5299,35.4972 93.5,34.5C 95.6645,29.8741 96.6645,24.8741 96.5,19.5C 98.1667,19.5 99.8333,19.5 101.5,19.5C 103.514,19.3915 105.18,20.0582 106.5,21.5C 110.63,26.9439 114.296,32.6106 117.5,38.5C 118.183,46.1582 117.016,53.4915 114,60.5C 110.236,62.8962 107.736,66.2296 106.5,70.5C 104.708,70.366 103.042,70.6993 101.5,71.5C 99.5,71.8333 97.5,72.1667 95.5,72.5C 95.8082,66.5746 95.4749,60.7412 94.5,55C 92.316,54.5576 90.316,55.0576 88.5,56.5C 86.6121,60.1446 84.9454,63.8112 83.5,67.5C 79.8642,69.1315 76.1975,70.9648 72.5,73C 67.8065,73.5639 63.1398,73.3973 58.5,72.5C 57.4324,71.5655 56.099,71.2322 54.5,71.5C 53.0892,69.086 51.0892,67.4194 48.5,66.5C 48.0435,63.2374 46.3769,60.9041 43.5,59.5C 43.5,58.8333 43.5,58.1667 43.5,57.5C 42.791,56.596 41.791,56.2627 40.5,56.5C 39.5111,61.9753 39.1778,67.642 39.5,73.5C 36.5739,72.5392 33.5739,71.8726 30.5,71.5C 29.609,70.8902 28.609,70.5569 27.5,70.5C 27.1667,69.8333 26.8333,69.1667 26.5,68.5C 25.6337,65.0457 23.6337,62.7124 20.5,61.5C 20.7148,59.8212 20.0481,58.8212 18.5,58.5C 18.5,57.8333 18.5,57.1667 18.5,56.5C 17.9987,47.6803 18.832,39.0137 21,30.5C 24.6759,26.6572 28.5092,22.9905 32.5,19.5C 34.861,19.3259 37.1944,18.9926 39.5,18.5C 39.1795,23.6946 39.5128,28.6946 40.5,33.5 Z"/></g>
<g><path style="opacity:1" fill="#5658e1" d="M 40.5,33.5 C 39.5128,28.6946 39.1795,23.6946 39.5,18.5C 37.1944,18.9926 34.861,19.3259 32.5,19.5C 34.8383,17.9605 37.5049,17.2938 40.5,17.5C 40.5,22.8333 40.5,28.1667 40.5,33.5 Z"/></g>
<g><path style="opacity:1" fill="#8182e5" d="M 41.5,16.5 C 40.8833,22.5982 41.55,28.2649 43.5,33.5C 42.7399,35.9845 41.7399,35.9845 40.5,33.5C 40.5,28.1667 40.5,22.8333 40.5,17.5C 37.5049,17.2938 34.8383,17.9605 32.5,19.5C 31.8333,19.5 31.1667,19.5 30.5,19.5C 31.347,18.0337 32.6803,17.2004 34.5,17C 36.8098,16.5034 39.1432,16.3367 41.5,16.5 Z"/></g>
<g><path style="opacity:1" fill="#c0c0f2" d="M 41.5,16.5 C 42.1667,21.1667 42.8333,25.8333 43.5,30.5C 43.5,30.8333 43.5,31.1667 43.5,31.5C 43.5,32.1667 43.5,32.8333 43.5,33.5C 41.55,28.2649 40.8833,22.5982 41.5,16.5 Z"/></g>
<g><path style="opacity:1" fill="#8b8be8" d="M 98.5,17.5 C 96.8333,17.5 95.1667,17.5 93.5,17.5C 93.5,23.1667 93.5,28.8333 93.5,34.5C 91.0274,34.9118 89.6941,33.9118 89.5,31.5C 90.4584,31.9528 91.2917,32.6195 92,33.5C 92.4994,27.8431 92.6661,22.1764 92.5,16.5C 94.7354,16.2053 96.7354,16.5386 98.5,17.5 Z"/></g>
<g><path style="opacity:1" fill="#afaff5" d="M 100.5,17.5 C 103.614,17.5548 105.948,18.8881 107.5,21.5C 107.167,21.5 106.833,21.5 106.5,21.5C 105.18,20.0582 103.514,19.3915 101.5,19.5C 101.167,18.8333 100.833,18.1667 100.5,17.5 Z"/></g>
<g><path style="opacity:1" fill="#5c5be9" d="M 78.5,19.5 C 79.6049,20.6005 80.9382,21.2671 82.5,21.5C 83.8333,23.5 85.5,25.1667 87.5,26.5C 87.8333,27.5 88.5,28.1667 89.5,28.5C 89.5,29.5 89.5,30.5 89.5,31.5C 89.6941,33.9118 91.0274,34.9118 93.5,34.5C 93.5299,35.4972 93.0299,36.1639 92,36.5C 88.3226,35.1446 86.6559,32.478 87,28.5C 83.3363,25.3757 79.503,22.709 75.5,20.5C 69.8722,19.5046 64.2055,19.1712 58.5,19.5C 60.8476,18.0483 63.5143,17.3817 66.5,17.5C 70.5821,17.7837 74.5821,18.4503 78.5,19.5 Z"/></g>
<g><path style="opacity:1" fill="#c6c7f6" d="M 82.5,21.5 C 85.1667,22.1667 86.8333,23.8333 87.5,26.5C 85.5,25.1667 83.8333,23.5 82.5,21.5 Z"/></g>
<g><path style="opacity:1" fill="#8686e9" d="M 30.5,19.5 C 27.8419,21.4949 25.1753,23.4949 22.5,25.5C 23.9766,22.0656 26.6433,20.0656 30.5,19.5 Z"/></g>
<g><path style="opacity:1" fill="#9d9df0" d="M 53.5,20.5 C 50.7606,23.2327 48.4273,26.2327 46.5,29.5C 45.5,30.1667 44.5,30.8333 43.5,31.5C 43.5,31.1667 43.5,30.8333 43.5,30.5C 45.8548,26.1452 49.1881,22.8119 53.5,20.5 Z"/></g>
<g><path style="opacity:1" fill="#9190ee" d="M 22.5,25.5 C 22.2624,27.4044 21.2624,28.7377 19.5,29.5C 19.7376,27.5956 20.7376,26.2623 22.5,25.5 Z"/></g>
<g><path style="opacity:1" fill="#5253e7" d="M 98.5,17.5 C 99.1667,17.5 99.8333,17.5 100.5,17.5C 100.833,18.1667 101.167,18.8333 101.5,19.5C 99.8333,19.5 98.1667,19.5 96.5,19.5C 96.6645,24.8741 95.6645,29.8741 93.5,34.5C 93.5,28.8333 93.5,23.1667 93.5,17.5C 95.1667,17.5 96.8333,17.5 98.5,17.5 Z"/></g>
<g><path style="opacity:1" fill="#5756e6" d="M 56.5,19.5 C 57.1667,19.5 57.8333,19.5 58.5,19.5C 54.2112,22.4526 50.2112,25.786 46.5,29.5C 48.4273,26.2327 50.7606,23.2327 53.5,20.5C 54.391,19.8902 55.391,19.5569 56.5,19.5 Z"/></g>
<g><path style="opacity:1" fill="#605ee6" d="M 106.5,21.5 C 106.833,21.5 107.167,21.5 107.5,21.5C 109.806,23.1394 111.806,25.1394 113.5,27.5C 113.427,29.0269 114.094,30.0269 115.5,30.5C 115.5,30.8333 115.5,31.1667 115.5,31.5C 115.427,33.0269 116.094,34.0269 117.5,34.5C 117.5,35.8333 117.5,37.1667 117.5,38.5C 114.296,32.6106 110.63,26.9439 106.5,21.5 Z"/></g>
<g><path style="opacity:1" fill="#a7a6f4" d="M 113.5,27.5 C 114.906,27.9731 115.573,28.9731 115.5,30.5C 114.094,30.0269 113.427,29.0269 113.5,27.5 Z"/></g>
<g><path style="opacity:1" fill="#a1a1ee" d="M 115.5,31.5 C 116.906,31.9731 117.573,32.9731 117.5,34.5C 116.094,34.0269 115.427,33.0269 115.5,31.5 Z"/></g>
<g><path style="opacity:1" fill="#a0a0f2" d="M 19.5,29.5 C 19.2451,31.9674 18.2451,33.9674 16.5,35.5C 16.7549,33.0326 17.7549,31.0326 19.5,29.5 Z"/></g>
<g><path style="opacity:1" fill="#5354ec" d="M 30.5,19.5 C 31.1667,19.5 31.8333,19.5 32.5,19.5C 28.5092,22.9905 24.6759,26.6572 21,30.5C 18.832,39.0137 17.9987,47.6803 18.5,56.5C 17.71,55.3915 17.21,54.0581 17,52.5C 16.5007,47.5111 16.3341,42.5111 16.5,37.5C 16.5,36.8333 16.5,36.1667 16.5,35.5C 18.2451,33.9674 19.2451,31.9674 19.5,29.5C 21.2624,28.7377 22.2624,27.4044 22.5,25.5C 25.1753,23.4949 27.8419,21.4949 30.5,19.5 Z"/></g>
<g><path style="opacity:1" fill="#7070de" d="M 16.5,37.5 C 16.3341,42.5111 16.5007,47.5111 17,52.5C 17.21,54.0581 17.71,55.3915 18.5,56.5C 18.5,57.1667 18.5,57.8333 18.5,58.5C 19.1098,59.391 19.4431,60.391 19.5,61.5C 18.8333,61.1667 18.1667,60.8333 17.5,60.5C 15.4517,52.7701 15.1184,45.1035 16.5,37.5 Z"/></g>
<g><path style="opacity:1" fill="#6a68e9" d="M 117.5,34.5 C 118.434,35.5676 118.768,36.901 118.5,38.5C 118.751,44.8918 118.418,51.2252 117.5,57.5C 116.069,58.7804 115.402,60.4471 115.5,62.5C 113.5,62.5 112.5,63.5 112.5,65.5C 110.5,67.1667 108.5,68.8333 106.5,70.5C 107.736,66.2296 110.236,62.8962 114,60.5C 117.016,53.4915 118.183,46.1582 117.5,38.5C 117.5,37.1667 117.5,35.8333 117.5,34.5 Z"/></g>
<g><path style="opacity:1" fill="#cacafb" d="M 118.5,38.5 C 119.805,40.3972 120.471,42.7305 120.5,45.5C 120.379,48.6922 120.046,51.8589 119.5,55C 119.316,56.3756 118.649,57.2089 117.5,57.5C 118.418,51.2252 118.751,44.8918 118.5,38.5 Z"/></g>
<g><path style="opacity:1" fill="#6e6de8" d="M 43.5,59.5 C 46.3769,60.9041 48.0435,63.2374 48.5,66.5C 46.5907,64.3512 44.924,62.0179 43.5,59.5 Z"/></g>
<g><path style="opacity:1" fill="#5759e4" d="M 40.5,56.5 C 40.5,62.5 40.5,68.5 40.5,74.5C 38.8333,74.5 37.1667,74.5 35.5,74.5C 34.8333,74.5 34.1667,74.5 33.5,74.5C 33.0269,73.0937 32.0269,72.427 30.5,72.5C 30.5,72.1667 30.5,71.8333 30.5,71.5C 33.5739,71.8726 36.5739,72.5392 39.5,73.5C 39.1778,67.642 39.5111,61.9753 40.5,56.5 Z"/></g>
<g><path style="opacity:1" fill="#5857e9" d="M 18.5,58.5 C 20.0481,58.8212 20.7148,59.8212 20.5,61.5C 23.6337,62.7124 25.6337,65.0457 26.5,68.5C 25.8333,68.5 25.1667,68.5 24.5,68.5C 23.2719,67.6935 22.2719,66.6935 21.5,65.5C 21.2671,63.9382 20.6005,62.6049 19.5,61.5C 19.4431,60.391 19.1098,59.391 18.5,58.5 Z"/></g>
<g><path style="opacity:1" fill="#bfc1f3" d="M 43.5,57.5 C 43.5,58.1667 43.5,58.8333 43.5,59.5C 42.5206,62.6248 42.1872,65.9581 42.5,69.5C 42.5,71.8333 42.5,74.1667 42.5,76.5C 39.9407,76.8016 37.6074,76.4682 35.5,75.5C 37.5,75.5 39.5,75.5 41.5,75.5C 40.88,69.0738 41.5467,63.0738 43.5,57.5 Z"/></g>
<g><path style="opacity:1" fill="#e7e8fd" d="M 43.5,59.5 C 44.924,62.0179 46.5907,64.3512 48.5,66.5C 49.1667,67.5 49.8333,68.5 50.5,69.5C 48.9557,69.2969 47.6223,68.6302 46.5,67.5C 45.3777,68.6302 44.0443,69.2969 42.5,69.5C 42.1872,65.9581 42.5206,62.6248 43.5,59.5 Z"/></g>
<g><path style="opacity:1" fill="#cacafb" d="M 97.5,75.5 C 95.7768,76.807 93.9435,76.807 92,75.5C 91.6667,70.5 91.3333,65.5 91,60.5C 90.7645,62.1193 89.9311,63.1193 88.5,63.5C 89.2341,62.2921 89.5674,60.9587 89.5,59.5C 90.7498,59.4226 91.5831,58.756 92,57.5C 92.3333,63.1667 92.6667,68.8333 93,74.5C 94.3561,75.3802 95.8561,75.7135 97.5,75.5 Z"/></g>
<g><path style="opacity:1" fill="#b6b6f5" d="M 17.5,60.5 C 18.1667,60.8333 18.8333,61.1667 19.5,61.5C 20.6005,62.6049 21.2671,63.9382 21.5,65.5C 19.4131,64.4154 18.0798,62.7488 17.5,60.5 Z"/></g>
<g><path style="opacity:1" fill="#5455ea" d="M 101.5,71.5 C 99.5615,73.1628 97.2282,73.8294 94.5,73.5C 94.5,67.8333 94.5,62.1667 94.5,56.5C 91.715,55.9162 90.0483,56.9162 89.5,59.5C 87.6127,61.7886 86.2794,64.4553 85.5,67.5C 82.8386,69.6577 79.8386,71.1577 76.5,72C 75.6195,72.7083 74.9528,73.5416 74.5,74.5C 74.1667,74.5 73.8333,74.5 73.5,74.5C 69.4862,74.6655 65.4862,74.4988 61.5,74C 60.2625,73.7679 59.2625,73.2679 58.5,72.5C 63.1398,73.3973 67.8065,73.5639 72.5,73C 76.1975,70.9648 79.8642,69.1315 83.5,67.5C 84.9454,63.8112 86.6121,60.1446 88.5,56.5C 90.316,55.0576 92.316,54.5576 94.5,55C 95.4749,60.7412 95.8082,66.5746 95.5,72.5C 97.5,72.1667 99.5,71.8333 101.5,71.5 Z"/></g>
<g><path style="opacity:1" fill="#7674e6" d="M 89.5,59.5 C 89.5674,60.9587 89.2341,62.2921 88.5,63.5C 87.9744,65.2303 86.9744,66.5637 85.5,67.5C 86.2794,64.4553 87.6127,61.7886 89.5,59.5 Z"/></g>
<g><path style="opacity:1" fill="#a3a3f0" d="M 115.5,62.5 C 114.833,63.8333 113.833,64.8333 112.5,65.5C 112.5,63.5 113.5,62.5 115.5,62.5 Z"/></g>
<g><path style="opacity:1" fill="#6d6be4" d="M 101.5,71.5 C 103.042,70.6993 104.708,70.366 106.5,70.5C 104.651,71.593 102.984,72.9263 101.5,74.5C 99.901,74.2322 98.5676,74.5655 97.5,75.5C 95.8561,75.7135 94.3561,75.3802 93,74.5C 92.6667,68.8333 92.3333,63.1667 92,57.5C 91.5831,58.756 90.7498,59.4226 89.5,59.5C 90.0483,56.9162 91.715,55.9162 94.5,56.5C 94.5,62.1667 94.5,67.8333 94.5,73.5C 97.2282,73.8294 99.5615,73.1628 101.5,71.5 Z"/></g>
<g><path style="opacity:1" fill="#7e80e4" d="M 40.5,56.5 C 41.791,56.2627 42.791,56.596 43.5,57.5C 41.5467,63.0738 40.88,69.0738 41.5,75.5C 39.5,75.5 37.5,75.5 35.5,75.5C 35.5,75.1667 35.5,74.8333 35.5,74.5C 37.1667,74.5 38.8333,74.5 40.5,74.5C 40.5,68.5 40.5,62.5 40.5,56.5 Z"/></g>
<g><path style="opacity:1" fill="#7273e7" d="M 48.5,66.5 C 51.0892,67.4194 53.0892,69.086 54.5,71.5C 53.8333,71.5 53.1667,71.5 52.5,71.5C 52.1667,70.5 51.5,69.8333 50.5,69.5C 49.8333,68.5 49.1667,67.5 48.5,66.5 Z"/></g>
<g><path style="opacity:1" fill="#8586e8" d="M 24.5,68.5 C 25.1667,68.5 25.8333,68.5 26.5,68.5C 26.8333,69.1667 27.1667,69.8333 27.5,70.5C 27.1667,70.5 26.8333,70.5 26.5,70.5C 25.5,70.1667 24.8333,69.5 24.5,68.5 Z"/></g>
<g><path style="opacity:1" fill="#a5a4f3" d="M 85.5,67.5 C 84.135,69.8598 82.135,71.5265 79.5,72.5C 77.8333,73.1667 76.1667,73.8333 74.5,74.5C 74.9528,73.5416 75.6195,72.7083 76.5,72C 79.8386,71.1577 82.8386,69.6577 85.5,67.5 Z"/></g>
<g><path style="opacity:1" fill="#8181ea" d="M 27.5,70.5 C 28.609,70.5569 29.609,70.8902 30.5,71.5C 30.5,71.8333 30.5,72.1667 30.5,72.5C 28.9731,72.573 27.9731,71.9063 27.5,70.5 Z"/></g>
<g><path style="opacity:1" fill="#e1e1fd" d="M 26.5,70.5 C 26.8333,70.5 27.1667,70.5 27.5,70.5C 27.9731,71.9063 28.9731,72.573 30.5,72.5C 30.9731,73.9063 31.9731,74.573 33.5,74.5C 34.1667,74.5 34.8333,74.5 35.5,74.5C 35.5,74.8333 35.5,75.1667 35.5,75.5C 30.7798,76.5866 27.7798,74.92 26.5,70.5 Z"/></g>
<g><path style="opacity:1" fill="#a09ff4" d="M 30.5,72.5 C 32.0269,72.427 33.0269,73.0937 33.5,74.5C 31.9731,74.573 30.9731,73.9063 30.5,72.5 Z"/></g>
<g><path style="opacity:1" fill="#d8d8fc" d="M 52.5,71.5 C 53.1667,71.5 53.8333,71.5 54.5,71.5C 56.249,73.256 58.249,74.5894 60.5,75.5C 56.8691,75.8587 54.2025,74.5254 52.5,71.5 Z"/></g>
<g><path style="opacity:1" fill="#c6c5fa" d="M 112.5,65.5 C 110.655,70.6748 106.988,73.6748 101.5,74.5C 102.984,72.9263 104.651,71.593 106.5,70.5C 108.5,68.8333 110.5,67.1667 112.5,65.5 Z"/></g>
<g><path style="opacity:1" fill="#8988ef" d="M 54.5,71.5 C 56.099,71.2322 57.4324,71.5655 58.5,72.5C 59.2625,73.2679 60.2625,73.7679 61.5,74C 65.4862,74.4988 69.4862,74.6655 73.5,74.5C 73.5,74.8333 73.5,75.1667 73.5,75.5C 69.1667,75.5 64.8333,75.5 60.5,75.5C 58.249,74.5894 56.249,73.256 54.5,71.5 Z"/></g>
<g><path style="opacity:1" fill="#d9dafd" d="M 79.5,72.5 C 78.3126,74.9754 76.3126,75.9754 73.5,75.5C 73.5,75.1667 73.5,74.8333 73.5,74.5C 73.8333,74.5 74.1667,74.5 74.5,74.5C 76.1667,73.8333 77.8333,73.1667 79.5,72.5 Z"/></g>
</svg>
