<?xml version="1.0" encoding="UTF-8"?>
<!DOCTYPE svg PUBLIC "-//W3C//DTD SVG 1.1//EN" "http://www.w3.org/Graphics/SVG/1.1/DTD/svg11.dtd">
<svg xmlns="http://www.w3.org/2000/svg" version="1.1" width="79px" height="74px" style="shape-rendering:geometricPrecision; text-rendering:geometricPrecision; image-rendering:optimizeQuality; fill-rule:evenodd; clip-rule:evenodd" xmlns:xlink="http://www.w3.org/1999/xlink">
<g><path style="opacity:1" fill="#feed51" d="M -0.5,-0.5 C 25.8333,-0.5 52.1667,-0.5 78.5,-0.5C 78.5,24.1667 78.5,48.8333 78.5,73.5C 52.1667,73.5 25.8333,73.5 -0.5,73.5C -0.5,48.8333 -0.5,24.1667 -0.5,-0.5 Z"/></g>
<g><path style="opacity:1" fill="#f7e870" d="M 65.5,6.5 C 62.9407,6.19845 60.6074,6.53178 58.5,7.5C 56.597,7.79586 54.9303,8.46253 53.5,9.5C 51.4352,9.48285 49.4352,9.14952 47.5,8.5C 46.8333,8.5 46.5,8.16667 46.5,7.5C 45.5081,5.9735 44.0081,5.30684 42,5.5C 39.9919,5.30684 38.4919,5.9735 37.5,7.5C 36.791,8.40397 35.791,8.73731 34.5,8.5C 35.8826,5.32078 38.3826,3.98745 42,4.5C 43.5,4.66667 45,4.83333 46.5,5C 50.0944,9.39067 53.761,9.39067 57.5,5C 59.8333,4.33333 62.1667,4.33333 64.5,5C 65.056,5.38258 65.3893,5.88258 65.5,6.5 Z"/></g>
<g><path style="opacity:1" fill="#e5d990" d="M 46.5,7.5 C 45.5,7.5 44.5,7.5 43.5,7.5C 41.5,7.5 39.5,7.5 37.5,7.5C 38.4919,5.9735 39.9919,5.30684 42,5.5C 44.0081,5.30684 45.5081,5.9735 46.5,7.5 Z"/></g>
<g><path style="opacity:1" fill="#f1e379" d="M 29.5,8.5 C 28.8333,8.5 28.1667,8.5 27.5,8.5C 26.391,8.44312 25.391,8.10978 24.5,7.5C 22.7116,6.37753 20.7116,6.21086 18.5,7C 17.1416,7.93436 15.8083,8.7677 14.5,9.5C 14.1667,9.5 13.8333,9.5 13.5,9.5C 18.5166,3.43894 23.8499,3.1056 29.5,8.5 Z"/></g>
<g><path style="opacity:1" fill="#cdc285" d="M 58.5,7.5 C 60.6074,6.53178 62.9407,6.19845 65.5,6.5C 65.8333,7.16667 66.1667,7.83333 66.5,8.5C 63.9039,7.73465 61.2372,7.40132 58.5,7.5 Z"/></g>
<g><path style="opacity:1" fill="#b0a57a" d="M 24.5,7.5 C 18.1886,7.14687 17.8552,8.14687 23.5,10.5C 21.8333,10.5 20.1667,10.5 18.5,10.5C 17.4324,9.56552 16.099,9.23219 14.5,9.5C 15.8083,8.7677 17.1416,7.93436 18.5,7C 20.7116,6.21086 22.7116,6.37753 24.5,7.5 Z"/></g>
<g><path style="opacity:1" fill="#aea479" d="M 43.5,7.5 C 44.5,7.5 45.5,7.5 46.5,7.5C 46.5,8.16667 46.8333,8.5 47.5,8.5C 47.5,8.83333 47.5,9.16667 47.5,9.5C 45.2043,9.80407 44.871,10.8041 46.5,12.5C 45.8333,12.5 45.1667,12.5 44.5,12.5C 43.3646,10.7868 41.698,10.1201 39.5,10.5C 41.2191,9.97789 42.5525,8.97789 43.5,7.5 Z"/></g>
<g><path style="opacity:1" fill="#978d69" d="M 58.5,7.5 C 61.2372,7.40132 63.9039,7.73465 66.5,8.5C 67.1667,8.5 67.5,8.83333 67.5,9.5C 66.209,9.26269 65.209,9.59603 64.5,10.5C 62.6208,9.65859 60.6208,9.32526 58.5,9.5C 56.7085,9.36596 55.0418,9.69929 53.5,10.5C 53.5,10.1667 53.5,9.83333 53.5,9.5C 54.9303,8.46253 56.597,7.79586 58.5,7.5 Z"/></g>
<g><path style="opacity:1" fill="#e7da8c" d="M 47.5,9.5 C 47.5,9.16667 47.5,8.83333 47.5,8.5C 49.4352,9.14952 51.4352,9.48285 53.5,9.5C 53.5,9.83333 53.5,10.1667 53.5,10.5C 52.8444,11.2778 52.0111,11.9444 51,12.5C 49.8261,11.4558 48.6594,10.4558 47.5,9.5 Z"/></g>
<g><path style="opacity:1" fill="#ded492" d="M 58.5,9.5 C 60.6208,9.32526 62.6208,9.65859 64.5,10.5C 64.8333,11.1667 65.1667,11.8333 65.5,12.5C 62.2304,11.0759 59.2304,11.4092 56.5,13.5C 55.5318,15.6074 55.1984,17.9407 55.5,20.5C 55.1667,20.5 54.8333,20.5 54.5,20.5C 54.5,20.1667 54.5,19.8333 54.5,19.5C 53.5737,15.0704 54.9071,11.7371 58.5,9.5 Z"/></g>
<g><path style="opacity:1" fill="#968d78" d="M 24.5,7.5 C 25.391,8.10978 26.391,8.44312 27.5,8.5C 28.9196,11.3489 30.9196,12.0156 33.5,10.5C 34.3382,10.1583 34.6716,9.49162 34.5,8.5C 35.791,8.73731 36.791,8.40397 37.5,7.5C 39.5,7.5 41.5,7.5 43.5,7.5C 42.5525,8.97789 41.2191,9.97789 39.5,10.5C 37.9731,10.427 36.9731,11.0937 36.5,12.5C 35.8333,12.8333 35.1667,13.1667 34.5,13.5C 34.5,12.8333 34.1667,12.5 33.5,12.5C 32.5,12.5 31.5,12.5 30.5,12.5C 29.8333,12.5 29.1667,12.5 28.5,12.5C 27.8333,12.5 27.1667,12.5 26.5,12.5C 25.7095,11.5987 24.7095,10.9321 23.5,10.5C 17.8552,8.14687 18.1886,7.14687 24.5,7.5 Z"/></g>
<g><path style="opacity:1" fill="#f1e37b" d="M 29.5,8.5 C 31.1667,8.5 32.8333,8.5 34.5,8.5C 34.6716,9.49162 34.3382,10.1583 33.5,10.5C 31.6203,10.7709 30.287,10.1042 29.5,8.5 Z"/></g>
<g><path style="opacity:1" fill="#dbd08b" d="M 27.5,8.5 C 28.1667,8.5 28.8333,8.5 29.5,8.5C 30.287,10.1042 31.6203,10.7709 33.5,10.5C 30.9196,12.0156 28.9196,11.3489 27.5,8.5 Z"/></g>
<g><path style="opacity:1" fill="#f0e287" d="M 39.5,10.5 C 41.698,10.1201 43.3646,10.7868 44.5,12.5C 41.8333,12.5 39.1667,12.5 36.5,12.5C 36.9731,11.0937 37.9731,10.427 39.5,10.5 Z"/></g>
<g><path style="opacity:1" fill="#958c88" d="M 47.5,9.5 C 48.6594,10.4558 49.8261,11.4558 51,12.5C 52.0111,11.9444 52.8444,11.2778 53.5,10.5C 55.0418,9.69929 56.7085,9.36596 58.5,9.5C 54.9071,11.7371 53.5737,15.0704 54.5,19.5C 53.5386,17.7354 53.2053,15.7354 53.5,13.5C 52.1667,13.5 50.8333,13.5 49.5,13.5C 49.5,15.8333 49.5,18.1667 49.5,20.5C 50.791,20.2627 51.791,20.596 52.5,21.5C 50.8212,21.2852 49.8212,21.9519 49.5,23.5C 48.5,24.1667 47.5,24.8333 46.5,25.5C 46.1583,24.6618 45.4916,24.3284 44.5,24.5C 44.5,24.1667 44.5,23.8333 44.5,23.5C 45.4916,23.6716 46.1583,23.3382 46.5,22.5C 47.1174,22.3893 47.6174,22.056 48,21.5C 48.6667,18.8333 48.6667,16.1667 48,13.5C 47.6174,12.944 47.1174,12.6107 46.5,12.5C 44.871,10.8041 45.2043,9.80407 47.5,9.5 Z"/></g>
<g><path style="opacity:1" fill="#958e88" d="M 67.5,9.5 C 70.1925,12.5807 71.1925,16.2473 70.5,20.5C 70.5,20.8333 70.5,21.1667 70.5,21.5C 69.8333,22.1667 69.1667,22.8333 68.5,23.5C 67.596,22.791 67.2627,21.791 67.5,20.5C 68.0356,17.3019 67.369,14.6353 65.5,12.5C 65.1667,11.8333 64.8333,11.1667 64.5,10.5C 65.209,9.59603 66.209,9.26269 67.5,9.5 Z"/></g>
<g><path style="opacity:1" fill="#e3d58d" d="M 13.5,9.5 C 13.8333,9.5 14.1667,9.5 14.5,9.5C 11.9439,12.6677 10.9439,16.3344 11.5,20.5C 9.80305,16.4119 10.4697,12.7453 13.5,9.5 Z"/></g>
<g><path style="opacity:1" fill="#f6e96e" d="M 65.5,12.5 C 67.369,14.6353 68.0356,17.3019 67.5,20.5C 67.1667,20.5 66.8333,20.5 66.5,20.5C 66.1667,20.5 65.8333,20.5 65.5,20.5C 65.5,18.1667 65.5,15.8333 65.5,13.5C 62.8333,13.5 60.1667,13.5 57.5,13.5C 57.5,16.1667 57.5,18.8333 57.5,21.5C 56.5269,19.0521 56.1936,16.3854 56.5,13.5C 59.2304,11.4092 62.2304,11.0759 65.5,12.5 Z"/></g>
<g><path style="opacity:1" fill="#837d9d" d="M 54.5,19.5 C 54.5,19.8333 54.5,20.1667 54.5,20.5C 54.5,21.8333 53.8333,22.5 52.5,22.5C 52.5,22.1667 52.5,21.8333 52.5,21.5C 51.791,20.596 50.791,20.2627 49.5,20.5C 49.5,18.1667 49.5,15.8333 49.5,13.5C 50.8333,13.5 52.1667,13.5 53.5,13.5C 53.2053,15.7354 53.5386,17.7354 54.5,19.5 Z"/></g>
<g><path style="opacity:1" fill="#fdec53" d="M 45.5,20.5 C 42.6912,23.0251 39.6912,23.0251 36.5,20.5C 36.1563,14.0111 38.9896,12.0111 45,14.5C 45.4955,16.4727 45.6621,18.4727 45.5,20.5 Z"/></g>
<g><path style="opacity:1" fill="#c4bb7a" d="M 67.5,9.5 C 69.0174,9.51056 70.1841,10.1772 71,11.5C 71.8045,14.6965 71.6378,17.6965 70.5,20.5C 71.1925,16.2473 70.1925,12.5807 67.5,9.5 Z"/></g>
<g><path style="opacity:1" fill="#f5e772" d="M 26.5,12.5 C 27.1667,12.5 27.8333,12.5 28.5,12.5C 28.5,15.1667 28.5,17.8333 28.5,20.5C 25.7664,23.1426 22.4331,24.1426 18.5,23.5C 13.135,14.5013 15.8016,10.8346 26.5,12.5 Z"/></g>
<g><path style="opacity:1" fill="#fcec51" d="M 18.5,13.5 C 21.1667,13.5 23.8333,13.5 26.5,13.5C 28.0288,20.4679 25.5288,23.1346 19,21.5C 18.5026,18.854 18.3359,16.1873 18.5,13.5 Z"/></g>
<g><path style="opacity:1" fill="#a79f96" d="M 28.5,12.5 C 29.1667,12.5 29.8333,12.5 30.5,12.5C 30.5,12.8333 30.5,13.1667 30.5,13.5C 29.5269,15.9479 29.1936,18.6146 29.5,21.5C 30.8221,21.67 31.9887,21.3366 33,20.5C 33.4974,17.854 33.6641,15.1873 33.5,12.5C 34.1667,12.5 34.5,12.8333 34.5,13.5C 34.1984,16.0593 34.5318,18.3926 35.5,20.5C 35.8039,21.1499 36.1373,21.8165 36.5,22.5C 39.0865,23.48 41.7531,23.8134 44.5,23.5C 44.5,23.8333 44.5,24.1667 44.5,24.5C 41.6146,24.1936 38.9479,24.5269 36.5,25.5C 34.4091,24.1346 32.0758,23.4679 29.5,23.5C 28.8902,22.609 28.5569,21.609 28.5,20.5C 28.5,17.8333 28.5,15.1667 28.5,12.5 Z"/></g>
<g><path style="opacity:1" fill="#e0d68e" d="M 18.5,10.5 C 20.1667,10.5 21.8333,10.5 23.5,10.5C 24.7095,10.9321 25.7095,11.5987 26.5,12.5C 15.8016,10.8346 13.135,14.5013 18.5,23.5C 14.7476,21.2864 13.5809,17.9531 15,13.5C 16.0391,12.2899 17.2058,11.2899 18.5,10.5 Z"/></g>
<g><path style="opacity:1" fill="#867fb6" d="M 30.5,12.5 C 31.5,12.5 32.5,12.5 33.5,12.5C 33.6641,15.1873 33.4974,17.854 33,20.5C 31.9887,21.3366 30.8221,21.67 29.5,21.5C 29.1936,18.6146 29.5269,15.9479 30.5,13.5C 30.5,13.1667 30.5,12.8333 30.5,12.5 Z"/></g>
<g><path style="opacity:1" fill="#6a64b8" d="M 30.5,13.5 C 31.6935,13.9704 32.3601,14.9704 32.5,16.5C 32.1667,17.5 31.8333,18.5 31.5,19.5C 30.5344,17.604 30.2011,15.604 30.5,13.5 Z"/></g>
<g><path style="opacity:1" fill="#f5e673" d="M 36.5,12.5 C 39.1667,12.5 41.8333,12.5 44.5,12.5C 45.1667,12.5 45.8333,12.5 46.5,12.5C 47.6567,15.3074 47.6567,17.9741 46.5,20.5C 46.1667,20.5 45.8333,20.5 45.5,20.5C 45.6621,18.4727 45.4955,16.4727 45,14.5C 38.9896,12.0111 36.1563,14.0111 36.5,20.5C 36.1667,20.5 35.8333,20.5 35.5,20.5C 34.5318,18.3926 34.1984,16.0593 34.5,13.5C 35.1667,13.1667 35.8333,12.8333 36.5,12.5 Z"/></g>
<g><path style="opacity:1" fill="#d4cb93" d="M 46.5,12.5 C 47.1174,12.6107 47.6174,12.944 48,13.5C 48.6667,16.1667 48.6667,18.8333 48,21.5C 47.6174,22.056 47.1174,22.3893 46.5,22.5C 46.5,21.8333 46.5,21.1667 46.5,20.5C 47.6567,17.9741 47.6567,15.3074 46.5,12.5 Z"/></g>
<g><path style="opacity:1" fill="#fded51" d="M 65.5,20.5 C 63.2009,22.7687 60.5342,23.102 57.5,21.5C 57.5,18.8333 57.5,16.1667 57.5,13.5C 60.1667,13.5 62.8333,13.5 65.5,13.5C 65.5,15.8333 65.5,18.1667 65.5,20.5 Z"/></g>
<g><path style="opacity:1" fill="#6561af" d="M 50.5,14.5 C 51.6491,14.7911 52.3158,15.6244 52.5,17C 52.1667,17.8333 51.8333,18.6667 51.5,19.5C 50.5481,17.9547 50.2148,16.288 50.5,14.5 Z"/></g>
<g><path style="opacity:1" fill="#efe486" d="M 35.5,20.5 C 35.8333,20.5 36.1667,20.5 36.5,20.5C 39.6912,23.0251 42.6912,23.0251 45.5,20.5C 45.8333,20.5 46.1667,20.5 46.5,20.5C 46.5,21.1667 46.5,21.8333 46.5,22.5C 46.1583,23.3382 45.4916,23.6716 44.5,23.5C 41.7531,23.8134 39.0865,23.48 36.5,22.5C 36.1373,21.8165 35.8039,21.1499 35.5,20.5 Z"/></g>
<g><path style="opacity:1" fill="#d4cc98" d="M 52.5,21.5 C 52.5,21.8333 52.5,22.1667 52.5,22.5C 52.5,22.8333 52.5,23.1667 52.5,23.5C 51.5,23.5 50.5,23.5 49.5,23.5C 49.8212,21.9519 50.8212,21.2852 52.5,21.5 Z"/></g>
<g><path style="opacity:1" fill="#f2e681" d="M 56.5,13.5 C 56.1936,16.3854 56.5269,19.0521 57.5,21.5C 60.5342,23.102 63.2009,22.7687 65.5,20.5C 65.8333,20.5 66.1667,20.5 66.5,20.5C 66.5858,21.4959 66.2524,22.3292 65.5,23C 62.854,23.4974 60.1873,23.6641 57.5,23.5C 56.0937,23.0269 55.427,22.0269 55.5,20.5C 55.1984,17.9407 55.5318,15.6074 56.5,13.5 Z"/></g>
<g><path style="opacity:1" fill="#9e9579" d="M 14.5,9.5 C 16.099,9.23219 17.4324,9.56552 18.5,10.5C 17.2058,11.2899 16.0391,12.2899 15,13.5C 13.5809,17.9531 14.7476,21.2864 18.5,23.5C 22.4331,24.1426 25.7664,23.1426 28.5,20.5C 28.5569,21.609 28.8902,22.609 29.5,23.5C 28.6618,23.8417 28.3284,24.5084 28.5,25.5C 27.8333,25.5 27.1667,25.5 26.5,25.5C 23.3752,24.5206 20.0419,24.1872 16.5,24.5C 16.2865,26.1439 16.6198,27.6439 17.5,29C 20.6965,29.8045 23.6965,29.6378 26.5,28.5C 27.1667,28.8333 27.8333,29.1667 28.5,29.5C 28.5,30.1667 28.8333,30.5 29.5,30.5C 29.8333,31.1667 30.1667,31.8333 30.5,32.5C 29.6618,32.8417 29.3284,33.5084 29.5,34.5C 29.1667,34.5 28.8333,34.5 28.5,34.5C 28.0629,32.9256 27.0629,31.7589 25.5,31C 22.408,30.2642 19.408,30.4309 16.5,31.5C 16.1034,30.475 15.4368,30.3083 14.5,31C 13.2264,31.9772 13.2264,32.8106 14.5,33.5C 14.4013,36.2372 14.7347,38.9039 15.5,41.5C 14.6618,41.8417 14.3284,42.5084 14.5,43.5C 12.0255,40.7491 11.0255,37.4158 11.5,33.5C 12.1667,32.1667 12.8333,30.8333 13.5,29.5C 14.5862,29.38 15.2528,28.7133 15.5,27.5C 14.5296,24.8799 13.1963,22.5466 11.5,20.5C 10.9439,16.3344 11.9439,12.6677 14.5,9.5 Z"/></g>
<g><path style="opacity:1" fill="#968e80" d="M 54.5,20.5 C 54.8333,20.5 55.1667,20.5 55.5,20.5C 55.427,22.0269 56.0937,23.0269 57.5,23.5C 57.5,23.8333 57.5,24.1667 57.5,24.5C 56.8333,24.5 56.1667,24.5 55.5,24.5C 54.209,24.7373 53.209,24.404 52.5,23.5C 52.5,23.1667 52.5,22.8333 52.5,22.5C 53.8333,22.5 54.5,21.8333 54.5,20.5 Z"/></g>
<g><path style="opacity:1" fill="#a7a080" d="M 66.5,20.5 C 66.8333,20.5 67.1667,20.5 67.5,20.5C 67.2627,21.791 67.596,22.791 68.5,23.5C 68.1667,24.5 67.5,25.1667 66.5,25.5C 63.7131,24.5233 60.7131,24.19 57.5,24.5C 57.5,24.1667 57.5,23.8333 57.5,23.5C 60.1873,23.6641 62.854,23.4974 65.5,23C 66.2524,22.3292 66.5858,21.4959 66.5,20.5 Z"/></g>
<g><path style="opacity:1" fill="#ede07b" d="M 11.5,20.5 C 13.1963,22.5466 14.5296,24.8799 15.5,27.5C 15.2528,28.7133 14.5862,29.38 13.5,29.5C 12.8333,26.5 12.1667,23.5 11.5,20.5 Z"/></g>
<g><path style="opacity:1" fill="#9791ad" d="M 26.5,25.5 C 26.5,26.5 26.5,27.5 26.5,28.5C 23.6965,29.6378 20.6965,29.8045 17.5,29C 16.6198,27.6439 16.2865,26.1439 16.5,24.5C 20.0419,24.1872 23.3752,24.5206 26.5,25.5 Z"/></g>
<g><path style="opacity:1" fill="#968fab" d="M 44.5,24.5 C 45.4916,24.3284 46.1583,24.6618 46.5,25.5C 46.5,26.5 46.5,27.5 46.5,28.5C 43.7131,29.4767 40.7131,29.81 37.5,29.5C 37.5,29.1667 37.5,28.8333 37.5,28.5C 37.1667,28.5 36.8333,28.5 36.5,28.5C 36.5,27.5 36.5,26.5 36.5,25.5C 38.9479,24.5269 41.6146,24.1936 44.5,24.5 Z"/></g>
<g><path style="opacity:1" fill="#ebdf80" d="M 49.5,23.5 C 50.5,23.5 51.5,23.5 52.5,23.5C 53.209,24.404 54.209,24.7373 55.5,24.5C 55.5,25.8333 55.5,27.1667 55.5,28.5C 55.1583,29.3382 54.4916,29.6716 53.5,29.5C 53.5,28.1667 53.5,26.8333 53.5,25.5C 52.1667,25.5 50.8333,25.5 49.5,25.5C 49.5,24.8333 49.5,24.1667 49.5,23.5 Z"/></g>
<g><path style="opacity:1" fill="#9993ae" d="M 55.5,24.5 C 56.1667,24.5 56.8333,24.5 57.5,24.5C 60.7131,24.19 63.7131,24.5233 66.5,25.5C 66.5,26.5 66.5,27.5 66.5,28.5C 62.8333,29.8333 59.1667,29.8333 55.5,28.5C 55.5,27.1667 55.5,25.8333 55.5,24.5 Z"/></g>
<g><path style="opacity:1" fill="#726eb7" d="M 18.5,25.5 C 20.8333,25.5 23.1667,25.5 25.5,25.5C 25.5,26.5 25.5,27.5 25.5,28.5C 23.1667,28.5 20.8333,28.5 18.5,28.5C 18.5,27.5 18.5,26.5 18.5,25.5 Z"/></g>
<g><path style="opacity:1" fill="#7570b8" d="M 37.5,28.5 C 37.5,27.5 37.5,26.5 37.5,25.5C 40.1667,25.5 42.8333,25.5 45.5,25.5C 45.5,26.5 45.5,27.5 45.5,28.5C 42.8333,28.5 40.1667,28.5 37.5,28.5 Z"/></g>
<g><path style="opacity:1" fill="#706bb4" d="M 57.5,25.5 C 59.8333,25.5 62.1667,25.5 64.5,25.5C 64.5,26.5 64.5,27.5 64.5,28.5C 62.1667,28.5 59.8333,28.5 57.5,28.5C 57.5,27.5 57.5,26.5 57.5,25.5 Z"/></g>
<g><path style="opacity:1" fill="#f5e667" d="M 65.5,6.5 C 68.3245,6.08073 70.4912,7.08073 72,9.5C 72.0674,20.3734 71.9008,31.0401 71.5,41.5C 72.2568,36.1736 71.2568,31.3403 68.5,27C 69.8561,25.4329 70.5228,23.5996 70.5,21.5C 70.5,21.1667 70.5,20.8333 70.5,20.5C 71.6378,17.6965 71.8045,14.6965 71,11.5C 70.1841,10.1772 69.0174,9.51056 67.5,9.5C 67.5,8.83333 67.1667,8.5 66.5,8.5C 66.1667,7.83333 65.8333,7.16667 65.5,6.5 Z"/></g>
<g><path style="opacity:1" fill="#d8cfa8" d="M 26.5,25.5 C 27.1667,25.5 27.8333,25.5 28.5,25.5C 28.5,26.8333 28.5,28.1667 28.5,29.5C 27.8333,29.1667 27.1667,28.8333 26.5,28.5C 26.5,27.5 26.5,26.5 26.5,25.5 Z"/></g>
<g><path style="opacity:1" fill="#dcd196" d="M 49.5,23.5 C 49.5,24.1667 49.5,24.8333 49.5,25.5C 48.5655,26.5676 48.2322,27.901 48.5,29.5C 47.8333,29.1667 47.1667,28.8333 46.5,28.5C 46.5,27.5 46.5,26.5 46.5,25.5C 47.5,24.8333 48.5,24.1667 49.5,23.5 Z"/></g>
<g><path style="opacity:1" fill="#f9ea64" d="M 28.5,29.5 C 28.5,28.1667 28.5,26.8333 28.5,25.5C 30.0418,24.6993 31.7085,24.366 33.5,24.5C 33.5,26.1667 33.5,27.8333 33.5,29.5C 31.8333,29.5 30.1667,29.5 28.5,29.5 Z"/></g>
<g><path style="opacity:1" fill="#d7cc88" d="M 70.5,21.5 C 70.5228,23.5996 69.8561,25.4329 68.5,27C 71.2568,31.3403 72.2568,36.1736 71.5,41.5C 71.1667,41.5 70.8333,41.5 70.5,41.5C 70.665,38.1501 70.4983,34.8168 70,31.5C 69.6174,30.944 69.1174,30.6107 68.5,30.5C 68.1667,29.5 67.5,28.8333 66.5,28.5C 66.5,27.5 66.5,26.5 66.5,25.5C 67.5,25.1667 68.1667,24.5 68.5,23.5C 69.1667,22.8333 69.8333,22.1667 70.5,21.5 Z"/></g>
<g><path style="opacity:1" fill="#f8e96e" d="M 49.5,25.5 C 50.8333,25.5 52.1667,25.5 53.5,25.5C 53.5,26.8333 53.5,28.1667 53.5,29.5C 51.8333,30.8333 50.1667,30.8333 48.5,29.5C 48.2322,27.901 48.5655,26.5676 49.5,25.5 Z"/></g>
<g><path style="opacity:1" fill="#e3d88c" d="M 29.5,23.5 C 32.0758,23.4679 34.4091,24.1346 36.5,25.5C 36.5,26.5 36.5,27.5 36.5,28.5C 35.5,29.1667 34.5,29.8333 33.5,30.5C 32.1667,30.5 30.8333,30.5 29.5,30.5C 28.8333,30.5 28.5,30.1667 28.5,29.5C 30.1667,29.5 31.8333,29.5 33.5,29.5C 33.5,27.8333 33.5,26.1667 33.5,24.5C 31.7085,24.366 30.0418,24.6993 28.5,25.5C 28.3284,24.5084 28.6618,23.8417 29.5,23.5 Z"/></g>
<g><path style="opacity:1" fill="#898183" d="M 16.5,31.5 C 16.1667,32.5 15.5,33.1667 14.5,33.5C 13.2264,32.8106 13.2264,31.9772 14.5,31C 15.4368,30.3083 16.1034,30.475 16.5,31.5 Z"/></g>
<g><path style="opacity:1" fill="#d5cdae" d="M 29.5,30.5 C 30.8333,30.5 32.1667,30.5 33.5,30.5C 33.5,31.1667 33.5,31.8333 33.5,32.5C 32.5,32.5 31.5,32.5 30.5,32.5C 30.1667,31.8333 29.8333,31.1667 29.5,30.5 Z"/></g>
<g><path style="opacity:1" fill="#928974" d="M 36.5,28.5 C 36.8333,28.5 37.1667,28.5 37.5,28.5C 37.5,28.8333 37.5,29.1667 37.5,29.5C 37.5,29.8333 37.5,30.1667 37.5,30.5C 37.0269,31.9063 36.0269,32.573 34.5,32.5C 34.1667,32.5 33.8333,32.5 33.5,32.5C 33.5,31.8333 33.5,31.1667 33.5,30.5C 34.5,29.8333 35.5,29.1667 36.5,28.5 Z"/></g>
<g><path style="opacity:1" fill="#e9de88" d="M 37.5,30.5 C 40.6085,30.2641 43.6085,30.5975 46.5,31.5C 46.5,32.1667 46.5,32.8333 46.5,33.5C 45.8333,33.1667 45.1667,32.8333 44.5,32.5C 41.7008,31.0744 39.0342,31.4077 36.5,33.5C 35.5318,35.6074 35.1984,37.9407 35.5,40.5C 38.0037,41.6392 40.6703,42.3059 43.5,42.5C 41.7354,43.4614 39.7354,43.7947 37.5,43.5C 36.828,42.7326 35.9947,42.0659 35,41.5C 34.502,38.5184 34.3354,35.5184 34.5,32.5C 36.0269,32.573 37.0269,31.9063 37.5,30.5 Z"/></g>
<g><path style="opacity:1" fill="#fdec51" d="M 44.5,32.5 C 44.5,34.5 44.5,36.5 44.5,38.5C 41.9253,39.2793 39.592,39.1127 37.5,38C 36.6198,36.6439 36.2865,35.1439 36.5,33.5C 39.0342,31.4077 41.7008,31.0744 44.5,32.5 Z"/></g>
<g><path style="opacity:1" fill="#fdec51" d="M 64.5,31.5 C 65.299,34.4299 65.6323,37.4299 65.5,40.5C 62.8333,40.5 60.1667,40.5 57.5,40.5C 55.5196,34.4564 57.8529,31.4564 64.5,31.5 Z"/></g>
<g><path style="opacity:1" fill="#847c93" d="M 46.5,31.5 C 49.4327,32.7905 52.4327,32.7905 55.5,31.5C 53.7711,33.8511 53.1044,36.5178 53.5,39.5C 53.6716,40.4916 53.3382,41.1583 52.5,41.5C 51.5,40.8333 50.5,40.1667 49.5,39.5C 50.791,39.7373 51.791,39.404 52.5,38.5C 52.8432,36.5168 52.1765,35.1834 50.5,34.5C 50.1667,34.5 49.8333,34.5 49.5,34.5C 48.8333,33.1667 47.8333,32.1667 46.5,31.5 Z"/></g>
<g><path style="opacity:1" fill="#e4d989" d="M 28.5,34.5 C 28.8016,37.0593 28.4682,39.3926 27.5,41.5C 27.8016,38.9407 27.4682,36.6074 26.5,34.5C 24.5318,31.4983 21.8652,30.8317 18.5,32.5C 15.8704,35.5759 15.8704,38.5759 18.5,41.5C 18.5,41.8333 18.5,42.1667 18.5,42.5C 17.391,42.4431 16.391,42.1098 15.5,41.5C 14.7347,38.9039 14.4013,36.2372 14.5,33.5C 15.5,33.1667 16.1667,32.5 16.5,31.5C 19.408,30.4309 22.408,30.2642 25.5,31C 27.0629,31.7589 28.0629,32.9256 28.5,34.5 Z"/></g>
<g><path style="opacity:1" fill="#fcec56" d="M 26.5,34.5 C 26.5,36.5 26.5,38.5 26.5,40.5C 23.8728,41.0916 21.2062,41.4249 18.5,41.5C 15.8704,38.5759 15.8704,35.5759 18.5,32.5C 21.8652,30.8317 24.5318,31.4983 26.5,34.5 Z"/></g>
<g><path style="opacity:1" fill="#8a83b6" d="M 30.5,32.5 C 31.5,32.5 32.5,32.5 33.5,32.5C 33.5,35.5 33.5,38.5 33.5,41.5C 32.1667,41.5 30.8333,41.5 29.5,41.5C 29.5,39.1667 29.5,36.8333 29.5,34.5C 29.3284,33.5084 29.6618,32.8417 30.5,32.5 Z"/></g>
<g><path style="opacity:1" fill="#bdb692" d="M 46.5,31.5 C 47.8333,32.1667 48.8333,33.1667 49.5,34.5C 49.5,36.1667 49.5,37.8333 49.5,39.5C 48.8333,39.5 48.1667,39.5 47.5,39.5C 47.7947,37.2646 47.4614,35.2646 46.5,33.5C 46.5,32.8333 46.5,32.1667 46.5,31.5 Z"/></g>
<g><path style="opacity:1" fill="#625dad" d="M 50.5,34.5 C 52.1765,35.1834 52.8432,36.5168 52.5,38.5C 50.8235,37.8166 50.1568,36.4832 50.5,34.5 Z"/></g>
<g><path style="opacity:1" fill="#b5ab8d" d="M 46.5,28.5 C 47.1667,28.8333 47.8333,29.1667 48.5,29.5C 50.1667,30.8333 51.8333,30.8333 53.5,29.5C 54.4916,29.6716 55.1583,29.3382 55.5,28.5C 59.1667,29.8333 62.8333,29.8333 66.5,28.5C 67.5,28.8333 68.1667,29.5 68.5,30.5C 67.596,31.209 67.2627,32.209 67.5,33.5C 66.5,32.8333 65.5,32.1667 64.5,31.5C 58.0964,29.876 54.763,32.5426 54.5,39.5C 54.1667,39.5 53.8333,39.5 53.5,39.5C 53.1044,36.5178 53.7711,33.8511 55.5,31.5C 52.4327,32.7905 49.4327,32.7905 46.5,31.5C 43.6085,30.5975 40.6085,30.2641 37.5,30.5C 37.5,30.1667 37.5,29.8333 37.5,29.5C 40.7131,29.81 43.7131,29.4767 46.5,28.5 Z"/></g>
<g><path style="opacity:1" fill="#f4e77f" d="M 64.5,31.5 C 57.8529,31.4564 55.5196,34.4564 57.5,40.5C 57.5,40.8333 57.5,41.1667 57.5,41.5C 56.8333,41.5 56.1667,41.5 55.5,41.5C 55.6716,40.5084 55.3382,39.8417 54.5,39.5C 54.763,32.5426 58.0964,29.876 64.5,31.5 Z"/></g>
<g><path style="opacity:1" fill="#fbea61" d="M 44.5,32.5 C 45.1667,32.8333 45.8333,33.1667 46.5,33.5C 47.4614,35.2646 47.7947,37.2646 47.5,39.5C 46.1667,40.5 44.8333,41.5 43.5,42.5C 40.6703,42.3059 38.0037,41.6392 35.5,40.5C 35.1984,37.9407 35.5318,35.6074 36.5,33.5C 36.2865,35.1439 36.6198,36.6439 37.5,38C 39.592,39.1127 41.9253,39.2793 44.5,38.5C 44.5,36.5 44.5,34.5 44.5,32.5 Z"/></g>
<g><path style="opacity:1" fill="#7773a9" d="M 49.5,34.5 C 49.8333,34.5 50.1667,34.5 50.5,34.5C 50.1568,36.4832 50.8235,37.8166 52.5,38.5C 51.791,39.404 50.791,39.7373 49.5,39.5C 49.5,37.8333 49.5,36.1667 49.5,34.5 Z"/></g>
<g><path style="opacity:1" fill="#f4e876" d="M 26.5,34.5 C 27.4682,36.6074 27.8016,38.9407 27.5,41.5C 24.7847,43.123 21.7847,43.7896 18.5,43.5C 18.5,43.1667 18.5,42.8333 18.5,42.5C 18.5,42.1667 18.5,41.8333 18.5,41.5C 21.2062,41.4249 23.8728,41.0916 26.5,40.5C 26.5,38.5 26.5,36.5 26.5,34.5 Z"/></g>
<g><path style="opacity:1" fill="#f6e96f" d="M 64.5,31.5 C 65.5,32.1667 66.5,32.8333 67.5,33.5C 67.8064,36.3854 67.4731,39.0521 66.5,41.5C 63.9039,42.2653 61.2372,42.5987 58.5,42.5C 57.8333,42.5 57.5,42.1667 57.5,41.5C 57.5,41.1667 57.5,40.8333 57.5,40.5C 60.1667,40.5 62.8333,40.5 65.5,40.5C 65.6323,37.4299 65.299,34.4299 64.5,31.5 Z"/></g>
<g><path style="opacity:1" fill="#d9d093" d="M 52.5,41.5 C 52.5,42.1667 52.5,42.8333 52.5,43.5C 50.8333,44.1667 49.1667,44.8333 47.5,45.5C 48.3527,43.1073 50.0194,41.774 52.5,41.5 Z"/></g>
<g><path style="opacity:1" fill="#c5bc8d" d="M 70.5,41.5 C 70.573,43.0269 69.9063,44.0269 68.5,44.5C 68.427,42.9731 69.0937,41.9731 70.5,41.5 Z"/></g>
<g><path style="opacity:1" fill="#c6bc91" d="M 27.5,41.5 C 27.0472,42.4584 26.3805,43.2917 25.5,44C 23.1902,44.4966 20.8568,44.6633 18.5,44.5C 18.5,44.1667 18.5,43.8333 18.5,43.5C 21.7847,43.7896 24.7847,43.123 27.5,41.5 Z"/></g>
<g><path style="opacity:1" fill="#9d958c" d="M 15.5,41.5 C 16.391,42.1098 17.391,42.4431 18.5,42.5C 18.5,42.8333 18.5,43.1667 18.5,43.5C 18.5,43.8333 18.5,44.1667 18.5,44.5C 18.5,44.8333 18.5,45.1667 18.5,45.5C 18.5,46.1667 18.5,46.8333 18.5,47.5C 17.8333,47.8333 17.1667,48.1667 16.5,48.5C 16.6085,46.4862 15.9418,44.8195 14.5,43.5C 14.3284,42.5084 14.6618,41.8417 15.5,41.5 Z"/></g>
<g><path style="opacity:1" fill="#f9ea68" d="M 11.5,43.5 C 13.7271,44.4006 14.7271,46.0672 14.5,48.5C 10.6599,51.3598 9.65986,55.0265 11.5,59.5C 11.5,60.8333 11.5,62.1667 11.5,63.5C 9.89963,62.0484 8.89963,60.2151 8.5,58C 10.3367,53.3342 11.3367,48.5009 11.5,43.5 Z"/></g>
<g><path style="opacity:1" fill="#e3d88b" d="M 11.5,33.5 C 11.0255,37.4158 12.0255,40.7491 14.5,43.5C 15.9418,44.8195 16.6085,46.4862 16.5,48.5C 15.8333,48.5 15.1667,48.5 14.5,48.5C 14.7271,46.0672 13.7271,44.4006 11.5,43.5C 10.3,40.031 10.3,36.6977 11.5,33.5 Z"/></g>
<g><path style="opacity:1" fill="#ece08b" d="M 52.5,43.5 C 53.8149,44.4756 55.1482,45.4756 56.5,46.5C 55.9953,47.9185 54.9953,48.5852 53.5,48.5C 53.3713,46.7839 53.038,45.1172 52.5,43.5 Z"/></g>
<g><path style="opacity:1" fill="#d0c687" d="M 68.5,44.5 C 67.5114,47.249 68.5114,49.249 71.5,50.5C 71.815,54.3714 71.4816,58.0381 70.5,61.5C 71.7457,55.4122 70.0791,50.4122 65.5,46.5C 66.0047,45.0815 67.0047,44.4148 68.5,44.5 Z"/></g>
<g><path style="opacity:1" fill="#736daa" d="M 18.5,45.5 C 20.5,45.5 22.5,45.5 24.5,45.5C 24.5,46.5 24.5,47.5 24.5,48.5C 22.2646,48.7947 20.2646,48.4614 18.5,47.5C 18.5,46.8333 18.5,46.1667 18.5,45.5 Z"/></g>
<g><path style="opacity:1" fill="#d0c796" d="M 47.5,45.5 C 47.7329,47.0618 48.3995,48.3951 49.5,49.5C 49.5,49.8333 49.5,50.1667 49.5,50.5C 48.8333,50.1667 48.1667,49.8333 47.5,49.5C 46.3143,48.0387 46.3143,46.7054 47.5,45.5 Z"/></g>
<g><path style="opacity:1" fill="#f7ea69" d="M 52.5,43.5 C 53.038,45.1172 53.3713,46.7839 53.5,48.5C 53.5,48.8333 53.5,49.1667 53.5,49.5C 52.1667,49.5 50.8333,49.5 49.5,49.5C 48.3995,48.3951 47.7329,47.0618 47.5,45.5C 49.1667,44.8333 50.8333,44.1667 52.5,43.5 Z"/></g>
<g><path style="opacity:1" fill="#908992" d="M 33.5,32.5 C 33.8333,32.5 34.1667,32.5 34.5,32.5C 34.3354,35.5184 34.502,38.5184 35,41.5C 35.9947,42.0659 36.828,42.7326 37.5,43.5C 39.6282,44.6291 41.9615,44.7958 44.5,44C 46.3757,43.0816 47.3757,41.5816 47.5,39.5C 48.1667,39.5 48.8333,39.5 49.5,39.5C 50.5,40.1667 51.5,40.8333 52.5,41.5C 50.0194,41.774 48.3527,43.1073 47.5,45.5C 46.3143,46.7054 46.3143,48.0387 47.5,49.5C 47.5,50.1667 47.1667,50.5 46.5,50.5C 43.1667,49.1667 39.8333,49.1667 36.5,50.5C 35.8333,50.5 35.5,50.1667 35.5,49.5C 37.7738,46.9645 37.1071,44.9645 33.5,43.5C 30.2614,42.2965 27.5948,43.2965 25.5,46.5C 26.1925,47.5178 26.8592,48.5178 27.5,49.5C 27.5,49.8333 27.5,50.1667 27.5,50.5C 23.7839,49.3433 20.1172,49.3433 16.5,50.5C 15.4937,50.0623 15.4937,49.3957 16.5,48.5C 17.1667,48.1667 17.8333,47.8333 18.5,47.5C 20.2646,48.4614 22.2646,48.7947 24.5,48.5C 24.5,47.5 24.5,46.5 24.5,45.5C 22.5,45.5 20.5,45.5 18.5,45.5C 18.5,45.1667 18.5,44.8333 18.5,44.5C 20.8568,44.6633 23.1902,44.4966 25.5,44C 26.3805,43.2917 27.0472,42.4584 27.5,41.5C 28.4682,39.3926 28.8016,37.0593 28.5,34.5C 28.8333,34.5 29.1667,34.5 29.5,34.5C 29.5,36.8333 29.5,39.1667 29.5,41.5C 30.8333,41.5 32.1667,41.5 33.5,41.5C 33.5,38.5 33.5,35.5 33.5,32.5 Z"/></g>
<g><path style="opacity:1" fill="#7973a6" d="M 39.5,45.5 C 39.62,46.5862 40.2867,47.2528 41.5,47.5C 42.7133,47.2528 43.38,46.5862 43.5,45.5C 44.404,46.209 44.7373,47.209 44.5,48.5C 42.5,48.5 40.5,48.5 38.5,48.5C 38.2627,47.209 38.596,46.209 39.5,45.5 Z"/></g>
<g><path style="opacity:1" fill="#f8e96b" d="M 33.5,43.5 C 34.5361,45.3911 34.5361,47.2245 33.5,49C 30.5096,49.8469 29.1762,48.6802 29.5,45.5C 30.287,43.8958 31.6203,43.2291 33.5,43.5 Z"/></g>
<g><path style="opacity:1" fill="#d1c69e" d="M 33.5,43.5 C 31.6203,43.2291 30.287,43.8958 29.5,45.5C 28.6236,45.3691 27.9569,45.7025 27.5,46.5C 28.1272,47.4168 28.4606,48.4168 28.5,49.5C 28.1667,49.5 27.8333,49.5 27.5,49.5C 26.8592,48.5178 26.1925,47.5178 25.5,46.5C 27.5948,43.2965 30.2614,42.2965 33.5,43.5 Z"/></g>
<g><path style="opacity:1" fill="#6560b2" d="M 39.5,45.5 C 40.8333,45.5 42.1667,45.5 43.5,45.5C 43.38,46.5862 42.7133,47.2528 41.5,47.5C 40.2867,47.2528 39.62,46.5862 39.5,45.5 Z"/></g>
<g><path style="opacity:1" fill="#ccc492" d="M 47.5,39.5 C 47.3757,41.5816 46.3757,43.0816 44.5,44C 41.9615,44.7958 39.6282,44.6291 37.5,43.5C 39.7354,43.7947 41.7354,43.4614 43.5,42.5C 44.8333,41.5 46.1667,40.5 47.5,39.5 Z"/></g>
<g><path style="opacity:1" fill="#645fb5" d="M 30.5,34.5 C 31.6491,34.7911 32.3158,35.6244 32.5,37C 32.1667,37.8333 31.8333,38.6667 31.5,39.5C 30.5481,37.9547 30.2148,36.288 30.5,34.5 Z"/></g>
<g><path style="opacity:1" fill="#e3d68d" d="M 14.5,48.5 C 12.1229,51.726 11.1229,55.3927 11.5,59.5C 9.65986,55.0265 10.6599,51.3598 14.5,48.5 Z"/></g>
<g><path style="opacity:1" fill="#d5cb97" d="M 27.5,50.5 C 28.7752,53.6038 28.7752,56.6038 27.5,59.5C 27.8016,56.9407 27.4682,54.6074 26.5,52.5C 26.1667,52.5 25.8333,52.5 25.5,52.5C 22.8188,50.2376 19.8188,49.9043 16.5,51.5C 16.5,51.1667 16.5,50.8333 16.5,50.5C 20.1172,49.3433 23.7839,49.3433 27.5,50.5 Z"/></g>
<g><path style="opacity:1" fill="#e7db8a" d="M 33.5,43.5 C 37.1071,44.9645 37.7738,46.9645 35.5,49.5C 33.1667,50.8333 30.8333,50.8333 28.5,49.5C 28.4606,48.4168 28.1272,47.4168 27.5,46.5C 27.9569,45.7025 28.6236,45.3691 29.5,45.5C 29.1762,48.6802 30.5096,49.8469 33.5,49C 34.5361,47.2245 34.5361,45.3911 33.5,43.5 Z"/></g>
<g><path style="opacity:1" fill="#98918d" d="M 68.5,30.5 C 69.1174,30.6107 69.6174,30.944 70,31.5C 70.4983,34.8168 70.665,38.1501 70.5,41.5C 69.0937,41.9731 68.427,42.9731 68.5,44.5C 67.0047,44.4148 66.0047,45.0815 65.5,46.5C 70.0791,50.4122 71.7457,55.4122 70.5,61.5C 68.7376,62.2623 67.7376,63.5956 67.5,65.5C 64.272,66.4137 60.9387,66.7471 57.5,66.5C 56.8333,66.5 56.1667,66.5 55.5,66.5C 54.075,65.078 53.075,63.4113 52.5,61.5C 53.6378,58.6965 53.8045,55.6965 53,52.5C 51.9887,53.3366 50.8221,53.67 49.5,53.5C 48.5,52.8333 47.5,52.1667 46.5,51.5C 46.5,51.1667 46.5,50.8333 46.5,50.5C 47.1667,50.5 47.5,50.1667 47.5,49.5C 48.1667,49.8333 48.8333,50.1667 49.5,50.5C 51.1284,51.8528 52.4617,51.5195 53.5,49.5C 53.5,49.1667 53.5,48.8333 53.5,48.5C 54.9953,48.5852 55.9953,47.9185 56.5,46.5C 55.1482,45.4756 53.8149,44.4756 52.5,43.5C 52.5,42.8333 52.5,42.1667 52.5,41.5C 53.3382,41.1583 53.6716,40.4916 53.5,39.5C 53.8333,39.5 54.1667,39.5 54.5,39.5C 55.3382,39.8417 55.6716,40.5084 55.5,41.5C 57.6154,44.5172 60.282,45.1839 63.5,43.5C 65.0269,43.573 66.0269,42.9063 66.5,41.5C 67.4731,39.0521 67.8064,36.3854 67.5,33.5C 67.2627,32.209 67.596,31.209 68.5,30.5 Z"/></g>
<g><path style="opacity:1" fill="#e6dc8a" d="M 49.5,49.5 C 50.8333,49.5 52.1667,49.5 53.5,49.5C 52.4617,51.5195 51.1284,51.8528 49.5,50.5C 49.5,50.1667 49.5,49.8333 49.5,49.5 Z"/></g>
<g><path style="opacity:1" fill="#7973a7" d="M 59.5,45.5 C 59.62,46.5862 60.2867,47.2528 61.5,47.5C 62.7133,47.2528 63.38,46.5862 63.5,45.5C 64.404,46.209 64.7373,47.209 64.5,48.5C 62.5,48.5 60.5,48.5 58.5,48.5C 58.2627,47.209 58.596,46.209 59.5,45.5 Z"/></g>
<g><path style="opacity:1" fill="#655fb3" d="M 59.5,45.5 C 60.8333,45.5 62.1667,45.5 63.5,45.5C 63.38,46.5862 62.7133,47.2528 61.5,47.5C 60.2867,47.2528 59.62,46.5862 59.5,45.5 Z"/></g>
<g><path style="opacity:1" fill="#cac192" d="M 55.5,41.5 C 56.1667,41.5 56.8333,41.5 57.5,41.5C 57.5,42.1667 57.8333,42.5 58.5,42.5C 59.9187,43.4511 61.5853,43.7845 63.5,43.5C 60.282,45.1839 57.6154,44.5172 55.5,41.5 Z"/></g>
<g><path style="opacity:1" fill="#e7dc89" d="M 66.5,41.5 C 66.0269,42.9063 65.0269,43.573 63.5,43.5C 61.5853,43.7845 59.9187,43.4511 58.5,42.5C 61.2372,42.5987 63.9039,42.2653 66.5,41.5 Z"/></g>
<g><path style="opacity:1" fill="#f2e57f" d="M 46.5,51.5 C 48.0461,53.8825 48.7128,56.5491 48.5,59.5C 45.7507,63.1705 42.0841,64.3372 37.5,63C 36.944,62.6174 36.6107,62.1174 36.5,61.5C 44.8871,63.3839 47.8871,60.3839 45.5,52.5C 39.1737,50.8411 36.1737,53.1744 36.5,59.5C 35.0769,51.6147 38.4103,48.948 46.5,51.5 Z"/></g>
<g><path style="opacity:1" fill="#9c938b" d="M 27.5,49.5 C 27.8333,49.5 28.1667,49.5 28.5,49.5C 30.8333,50.8333 33.1667,50.8333 35.5,49.5C 35.5,50.1667 35.8333,50.5 36.5,50.5C 34.537,53.518 34.037,56.8513 35,60.5C 35.3826,61.056 35.8826,61.3893 36.5,61.5C 36.6107,62.1174 36.944,62.6174 37.5,63C 42.0841,64.3372 45.7507,63.1705 48.5,59.5C 48.8333,59.5 49.1667,59.5 49.5,59.5C 50.7095,59.9321 51.7095,60.5987 52.5,61.5C 50.0947,62.6871 47.7613,64.1871 45.5,66C 42.5184,66.498 39.5184,66.6646 36.5,66.5C 35.5084,66.6716 34.8417,66.3382 34.5,65.5C 33.9283,62.7564 32.2617,61.9231 29.5,63C 28.7476,63.6708 28.4142,64.5041 28.5,65.5C 28.1667,65.5 27.8333,65.5 27.5,65.5C 24.1501,65.665 20.8168,65.4983 17.5,65C 16.2617,64.31 16.2617,63.81 17.5,63.5C 20.0593,63.8016 22.3926,63.4682 24.5,62.5C 26.5,62.5 27.5,61.5 27.5,59.5C 28.7752,56.6038 28.7752,53.6038 27.5,50.5C 27.5,50.1667 27.5,49.8333 27.5,49.5 Z"/></g>
<g><path style="opacity:1" fill="#fced53" d="M 36.5,61.5 C 36.5,60.8333 36.5,60.1667 36.5,59.5C 36.1737,53.1744 39.1737,50.8411 45.5,52.5C 47.8871,60.3839 44.8871,63.3839 36.5,61.5 Z"/></g>
<g><path style="opacity:1" fill="#fbec59" d="M 64.5,51.5 C 65.5,51.5 66.5,51.5 67.5,51.5C 67.6646,54.5184 67.498,57.5184 67,60.5C 66.6174,61.056 66.1174,61.3893 65.5,61.5C 62.5,61.5 59.5,61.5 56.5,61.5C 56.5,58.1667 56.5,54.8333 56.5,51.5C 59.1667,51.5 61.8333,51.5 64.5,51.5 Z"/></g>
<g><path style="opacity:1" fill="#d3cc87" d="M 16.5,52.5 C 15.7814,54.7638 15.448,57.0971 15.5,59.5C 14.8529,58.7261 14.5195,57.7261 14.5,56.5C 14.3402,54.6455 15.0069,53.3121 16.5,52.5 Z"/></g>
<g><path style="opacity:1" fill="#847eb4" d="M 29.5,52.5 C 30.8333,52.5 32.1667,52.5 33.5,52.5C 33.5,55.1667 33.5,57.8333 33.5,60.5C 32.1779,60.33 31.0113,60.6634 30,61.5C 29.502,58.5184 29.3354,55.5184 29.5,52.5 Z"/></g>
<g><path style="opacity:1" fill="#6560b6" d="M 30.5,53.5 C 31.6935,53.9704 32.3601,54.9704 32.5,56.5C 32.1667,57.5 31.8333,58.5 31.5,59.5C 30.5344,57.604 30.2011,55.604 30.5,53.5 Z"/></g>
<g><path style="opacity:1" fill="#dcd096" d="M 46.5,50.5 C 46.5,50.8333 46.5,51.1667 46.5,51.5C 38.4103,48.948 35.0769,51.6147 36.5,59.5C 36.5,60.1667 36.5,60.8333 36.5,61.5C 35.8826,61.3893 35.3826,61.056 35,60.5C 34.037,56.8513 34.537,53.518 36.5,50.5C 39.8333,49.1667 43.1667,49.1667 46.5,50.5 Z"/></g>
<g><path style="opacity:1" fill="#b4ae95" d="M 46.5,51.5 C 47.5,52.1667 48.5,52.8333 49.5,53.5C 49.5,55.5 49.5,57.5 49.5,59.5C 49.1667,59.5 48.8333,59.5 48.5,59.5C 48.7128,56.5491 48.0461,53.8825 46.5,51.5 Z"/></g>
<g><path style="opacity:1" fill="#ede08a" d="M 64.5,51.5 C 61.8333,51.5 59.1667,51.5 56.5,51.5C 56.5,54.8333 56.5,58.1667 56.5,61.5C 59.5,61.5 62.5,61.5 65.5,61.5C 65.3893,62.1174 65.056,62.6174 64.5,63C 58.3646,65.204 55.0312,63.204 54.5,57C 55.0767,54.863 55.41,52.6963 55.5,50.5C 58.7131,50.19 61.7131,50.5233 64.5,51.5 Z"/></g>
<g><path style="opacity:1" fill="#807a9e" d="M 52.5,61.5 C 51.7095,60.5987 50.7095,59.9321 49.5,59.5C 49.5,57.5 49.5,55.5 49.5,53.5C 50.8221,53.67 51.9887,53.3366 53,52.5C 53.8045,55.6965 53.6378,58.6965 52.5,61.5 Z"/></g>
<g><path style="opacity:1" fill="#6360b0" d="M 50.5,54.5 C 51.5862,54.62 52.2528,55.2867 52.5,56.5C 52.1667,57.1667 51.8333,57.8333 51.5,58.5C 50.5713,57.3112 50.238,55.9778 50.5,54.5 Z"/></g>
<g><path style="opacity:1" fill="#f8ea6c" d="M 25.5,52.5 C 23.1667,52.5 20.8333,52.5 18.5,52.5C 18.5,55.1667 18.5,57.8333 18.5,60.5C 21.1667,60.5 23.8333,60.5 26.5,60.5C 26.5,57.8333 26.5,55.1667 26.5,52.5C 27.4682,54.6074 27.8016,56.9407 27.5,59.5C 27.5,61.5 26.5,62.5 24.5,62.5C 21.014,63.1715 18.3473,62.1715 16.5,59.5C 16.1667,59.5 15.8333,59.5 15.5,59.5C 15.448,57.0971 15.7814,54.7638 16.5,52.5C 16.5,52.1667 16.5,51.8333 16.5,51.5C 19.8188,49.9043 22.8188,50.2376 25.5,52.5 Z"/></g>
<g><path style="opacity:1" fill="#fded50" d="M 25.5,52.5 C 25.8333,52.5 26.1667,52.5 26.5,52.5C 26.5,55.1667 26.5,57.8333 26.5,60.5C 23.8333,60.5 21.1667,60.5 18.5,60.5C 18.5,57.8333 18.5,55.1667 18.5,52.5C 20.8333,52.5 23.1667,52.5 25.5,52.5 Z"/></g>
<g><path style="opacity:1" fill="#9a9179" d="M 14.5,48.5 C 15.1667,48.5 15.8333,48.5 16.5,48.5C 15.4937,49.3957 15.4937,50.0623 16.5,50.5C 16.5,50.8333 16.5,51.1667 16.5,51.5C 16.5,51.8333 16.5,52.1667 16.5,52.5C 15.0069,53.3121 14.3402,54.6455 14.5,56.5C 14.5195,57.7261 14.8529,58.7261 15.5,59.5C 15.8333,59.5 16.1667,59.5 16.5,59.5C 16.4326,60.9587 16.7659,62.2921 17.5,63.5C 16.2617,63.81 16.2617,64.31 17.5,65C 20.8168,65.4983 24.1501,65.665 27.5,65.5C 24.0381,66.4816 20.3714,66.815 16.5,66.5C 14.6489,64.2241 12.9823,61.8907 11.5,59.5C 11.1229,55.3927 12.1229,51.726 14.5,48.5 Z"/></g>
<g><path style="opacity:1" fill="#e0d69a" d="M 16.5,59.5 C 18.3473,62.1715 21.014,63.1715 24.5,62.5C 22.3926,63.4682 20.0593,63.8016 17.5,63.5C 16.7659,62.2921 16.4326,60.9587 16.5,59.5 Z"/></g>
<g><path style="opacity:1" fill="#e2d690" d="M 34.5,65.5 C 32.5,64.1667 30.5,64.1667 28.5,65.5C 28.4142,64.5041 28.7476,63.6708 29.5,63C 32.2617,61.9231 33.9283,62.7564 34.5,65.5 Z"/></g>
<g><path style="opacity:1" fill="#e4d87b" d="M 11.5,59.5 C 12.9823,61.8907 14.6489,64.2241 16.5,66.5C 14.5887,65.925 12.922,64.925 11.5,63.5C 11.5,62.1667 11.5,60.8333 11.5,59.5 Z"/></g>
<g><path style="opacity:1" fill="#e3d87e" d="M 52.5,61.5 C 53.075,63.4113 54.075,65.078 55.5,66.5C 53.9064,66.0805 52.4064,65.4138 51,64.5C 46.3758,67.5089 41.5425,68.1755 36.5,66.5C 39.5184,66.6646 42.5184,66.498 45.5,66C 47.7613,64.1871 50.0947,62.6871 52.5,61.5 Z"/></g>
<g><path style="opacity:1" fill="#cfc386" d="M 70.5,61.5 C 70.2624,63.4044 69.2624,64.7377 67.5,65.5C 67.7376,63.5956 68.7376,62.2623 70.5,61.5 Z"/></g>
<g><path style="opacity:1" fill="#f2e466" d="M 71.5,50.5 C 72.6327,52.0552 73.2994,53.8886 73.5,56C 72.6898,59.7921 72.3564,63.6255 72.5,67.5C 70.1667,67.5 67.8333,67.5 65.5,67.5C 62.6146,67.8064 59.9479,67.4731 57.5,66.5C 60.9387,66.7471 64.272,66.4137 67.5,65.5C 69.2624,64.7377 70.2624,63.4044 70.5,61.5C 71.4816,58.0381 71.815,54.3714 71.5,50.5 Z"/></g>
<g><path style="opacity:1" fill="#f7e961" d="M 34.5,65.5 C 34.8417,66.3382 35.5084,66.6716 36.5,66.5C 41.5425,68.1755 46.3758,67.5089 51,64.5C 52.4064,65.4138 53.9064,66.0805 55.5,66.5C 56.1667,66.5 56.8333,66.5 57.5,66.5C 59.9479,67.4731 62.6146,67.8064 65.5,67.5C 64.6879,68.9931 63.3545,69.6598 61.5,69.5C 57.3168,67.7688 52.9835,67.2688 48.5,68C 46.6178,69.4788 44.4511,70.3121 42,70.5C 38.4907,69.0059 34.8241,68.0059 31,67.5C 27.0291,69.1136 22.8624,69.6136 18.5,69C 17.244,68.5831 16.5774,67.7498 16.5,66.5C 20.3714,66.815 24.0381,66.4816 27.5,65.5C 27.8333,65.5 28.1667,65.5 28.5,65.5C 30.5,64.1667 32.5,64.1667 34.5,65.5 Z"/></g>
</svg>
