<?xml version="1.0" encoding="UTF-8"?>
<!DOCTYPE svg PUBLIC "-//W3C//DTD SVG 1.1//EN" "http://www.w3.org/Graphics/SVG/1.1/DTD/svg11.dtd">
<svg xmlns="http://www.w3.org/2000/svg" version="1.1" width="103px" height="101px" style="shape-rendering:geometricPrecision; text-rendering:geometricPrecision; image-rendering:optimizeQuality; fill-rule:evenodd; clip-rule:evenodd" xmlns:xlink="http://www.w3.org/1999/xlink">
<g><path style="opacity:1" fill="#feec4f" d="M -0.5,-0.5 C 33.8333,-0.5 68.1667,-0.5 102.5,-0.5C 102.5,33.1667 102.5,66.8333 102.5,100.5C 68.1667,100.5 33.8333,100.5 -0.5,100.5C -0.5,66.8333 -0.5,33.1667 -0.5,-0.5 Z"/></g>
<g><path style="opacity:1" fill="#fced65" d="M 73.5,16.5 C 69.6828,14.59 65.6828,13.2567 61.5,12.5C 54.3524,11.5084 47.0191,11.175 39.5,11.5C 39.9175,10.7784 40.5842,10.2784 41.5,10C 48.8333,9.33333 56.1667,9.33333 63.5,10C 66.4198,11.2345 69.4198,12.2345 72.5,13C 73.3366,14.0113 73.67,15.1779 73.5,16.5 Z"/></g>
<g><path style="opacity:1" fill="#fef8b2" d="M 39.5,11.5 C 47.0191,11.175 54.3524,11.5084 61.5,12.5C 50.8579,11.1829 40.8579,12.8496 31.5,17.5C 33.8089,15.0134 36.4756,13.0134 39.5,11.5 Z"/></g>
<g><path style="opacity:1" fill="#fefefd" d="M 67.5,16.5 C 69.5,17.5 71.5,18.5 73.5,19.5C 76.7511,24.0927 80.4178,28.426 84.5,32.5C 86.4499,42.0591 86.9499,51.7257 86,61.5C 85.1482,62.5707 84.3149,63.5707 83.5,64.5C 78.7861,70.8767 73.4528,76.5433 67.5,81.5C 66.8333,81.5 66.1667,81.5 65.5,81.5C 60.9141,82.4248 56.4141,83.4248 52,84.5C 46.4736,83.6012 40.9736,82.6012 35.5,81.5C 34.609,80.8902 33.609,80.5569 32.5,80.5C 32.1667,80.5 31.8333,80.5 31.5,80.5C 29.4309,77.4275 26.7642,75.0941 23.5,73.5C 20.7232,71.0495 18.7232,68.0495 17.5,64.5C 14.6855,53.391 15.0189,42.391 18.5,31.5C 18.5,31.1667 18.5,30.8333 18.5,30.5C 21.3918,27.729 24.0584,24.729 26.5,21.5C 32.0424,18.8098 37.709,16.3098 43.5,14C 51.7588,12.8474 59.7588,13.6807 67.5,16.5 Z"/></g>
<g><path style="opacity:1" fill="#fffedd" d="M 61.5,12.5 C 63.5,13.8333 65.5,15.1667 67.5,16.5C 59.7588,13.6807 51.7588,12.8474 43.5,14C 37.709,16.3098 32.0424,18.8098 26.5,21.5C 27.5,20.1667 28.5,18.8333 29.5,17.5C 30.1667,17.5 30.8333,17.5 31.5,17.5C 40.8579,12.8496 50.8579,11.1829 61.5,12.5 Z"/></g>
<g><path style="opacity:1" fill="#fcf5a1" d="M 61.5,12.5 C 65.6828,13.2567 69.6828,14.59 73.5,16.5C 76.9015,19.8953 79.9015,23.562 82.5,27.5C 79.5,24.8333 76.5,22.1667 73.5,19.5C 71.5,18.5 69.5,17.5 67.5,16.5C 65.5,15.1667 63.5,13.8333 61.5,12.5 Z"/></g>
<g><path style="opacity:1" fill="#fceb60" d="M 39.5,11.5 C 36.4756,13.0134 33.8089,15.0134 31.5,17.5C 30.8333,17.5 30.1667,17.5 29.5,17.5C 27.4048,18.412 25.4048,19.5787 23.5,21C 22.7476,21.6708 22.4142,22.5041 22.5,23.5C 20.5441,25.1139 18.5441,26.7806 16.5,28.5C 16.3505,27.448 16.5172,26.448 17,25.5C 22.566,17.9551 30.066,13.2885 39.5,11.5 Z"/></g>
<g><path style="opacity:1" fill="#fbef88" d="M 29.5,17.5 C 28.5,18.8333 27.5,20.1667 26.5,21.5C 24.9382,21.7329 23.6049,22.3995 22.5,23.5C 22.4142,22.5041 22.7476,21.6708 23.5,21C 25.4048,19.5787 27.4048,18.412 29.5,17.5 Z"/></g>
<g><path style="opacity:1" fill="#fffdd6" d="M 73.5,19.5 C 76.5,22.1667 79.5,24.8333 82.5,27.5C 83.1667,27.8333 83.8333,28.1667 84.5,28.5C 84.5,29.1667 84.5,29.8333 84.5,30.5C 84.5,31.1667 84.5,31.8333 84.5,32.5C 80.4178,28.426 76.7511,24.0927 73.5,19.5 Z"/></g>
<g><path style="opacity:1" fill="#fefac0" d="M 26.5,21.5 C 24.0584,24.729 21.3918,27.729 18.5,30.5C 19.8056,28.1838 21.1389,25.8505 22.5,23.5C 23.6049,22.3995 24.9382,21.7329 26.5,21.5 Z"/></g>
<g><path style="opacity:1" fill="#fbf089" d="M 22.5,23.5 C 21.1389,25.8505 19.8056,28.1838 18.5,30.5C 18.5,30.8333 18.5,31.1667 18.5,31.5C 17.7281,32.6935 16.7281,33.6935 15.5,34.5C 16.1495,32.5648 16.4828,30.5648 16.5,28.5C 18.5441,26.7806 20.5441,25.1139 22.5,23.5 Z"/></g>
<g><path style="opacity:1" fill="#fcf191" d="M 84.5,30.5 C 86.9754,31.6874 87.9754,33.6874 87.5,36.5C 86.8571,34.9236 85.8571,33.5903 84.5,32.5C 84.5,31.8333 84.5,31.1667 84.5,30.5 Z"/></g>
<g><path style="opacity:1" fill="#fffdd2" d="M 18.5,31.5 C 15.0189,42.391 14.6855,53.391 17.5,64.5C 16.8333,64.1667 16.1667,63.8333 15.5,63.5C 12.8735,54.1343 12.8735,44.8009 15.5,35.5C 15.5,35.1667 15.5,34.8333 15.5,34.5C 16.7281,33.6935 17.7281,32.6935 18.5,31.5 Z"/></g>
<g><path style="opacity:1" fill="#b8b7ed" d="M 59.5,41.5 C 57.8333,41.5 56.1667,41.5 54.5,41.5C 52.2188,41.0773 50.5521,41.744 49.5,43.5C 49.1667,43.5 48.8333,43.5 48.5,43.5C 48.5,42.5 48.5,41.5 48.5,40.5C 52.3714,40.185 56.0381,40.5184 59.5,41.5 Z"/></g>
<g><path style="opacity:1" fill="#8b8bce" d="M 54.5,41.5 C 54.5,42.1667 54.5,42.8333 54.5,43.5C 52.8333,43.5 51.1667,43.5 49.5,43.5C 50.5521,41.744 52.2188,41.0773 54.5,41.5 Z"/></g>
<g><path style="opacity:1" fill="#8182e1" d="M 54.5,41.5 C 56.1667,41.5 57.8333,41.5 59.5,41.5C 59.5,41.8333 59.5,42.1667 59.5,42.5C 58.5,42.5 57.5,42.5 56.5,42.5C 56.5,43.5 56.5,44.5 56.5,45.5C 57.5,45.5 58.5,45.5 59.5,45.5C 59.6567,46.8734 59.49,48.2068 59,49.5C 58.7679,48.2625 58.2679,47.2625 57.5,46.5C 55.9731,46.427 54.9731,47.0937 54.5,48.5C 53.6618,48.1583 53.3284,47.4916 53.5,46.5C 54.2674,45.828 54.9341,44.9947 55.5,44C 55.2716,43.6012 54.9382,43.4346 54.5,43.5C 54.5,42.8333 54.5,42.1667 54.5,41.5 Z"/></g>
<g><path style="opacity:1" fill="#fbed7e" d="M 15.5,35.5 C 12.8735,44.8009 12.8735,54.1343 15.5,63.5C 15.5,63.8333 15.5,64.1667 15.5,64.5C 13.9032,63.2627 12.7365,61.596 12,59.5C 11.3333,52.8333 11.3333,46.1667 12,39.5C 13.4048,38.2695 14.5714,36.9361 15.5,35.5 Z"/></g>
<g><path style="opacity:1" fill="#e2e1fc" d="M 48.5,43.5 C 48.8333,43.5 49.1667,43.5 49.5,43.5C 51.1667,43.5 52.8333,43.5 54.5,43.5C 54.9382,43.4346 55.2716,43.6012 55.5,44C 54.9341,44.9947 54.2674,45.828 53.5,46.5C 52.5,47.1667 51.5,47.8333 50.5,48.5C 50.1692,46.6776 49.5025,45.0109 48.5,43.5 Z"/></g>
<g><path style="opacity:1" fill="#6766e7" d="M 59.5,42.5 C 59.5,43.5 59.5,44.5 59.5,45.5C 58.5,45.5 57.5,45.5 56.5,45.5C 56.5,44.5 56.5,43.5 56.5,42.5C 57.5,42.5 58.5,42.5 59.5,42.5 Z"/></g>
<g><path style="opacity:1" fill="#faef89" d="M 87.5,37.5 C 88.7899,38.0577 89.6232,39.0577 90,40.5C 90.6667,45.5 90.6667,50.5 90,55.5C 89.6264,57.4913 88.793,59.158 87.5,60.5C 87.5,59.1667 87.5,57.8333 87.5,56.5C 89.0468,54.1934 89.7135,51.5267 89.5,48.5C 89.3333,46.5 89.1667,44.5 89,42.5C 88.6174,41.944 88.1174,41.6107 87.5,41.5C 87.5,40.1667 87.5,38.8333 87.5,37.5 Z"/></g>
<g><path style="opacity:1" fill="#fffddb" d="M 84.5,32.5 C 85.8571,33.5903 86.8571,34.9236 87.5,36.5C 87.5,36.8333 87.5,37.1667 87.5,37.5C 87.5,38.8333 87.5,40.1667 87.5,41.5C 87.5,46.5 87.5,51.5 87.5,56.5C 87.5,57.8333 87.5,59.1667 87.5,60.5C 87.5,61.1667 87.5,61.8333 87.5,62.5C 85.9263,63.9842 84.593,65.6508 83.5,67.5C 83.5,66.5 83.5,65.5 83.5,64.5C 84.3149,63.5707 85.1482,62.5707 86,61.5C 86.9499,51.7257 86.4499,42.0591 84.5,32.5 Z"/></g>
<g><path style="opacity:1" fill="#fefbc3" d="M 87.5,41.5 C 88.1174,41.6107 88.6174,41.944 89,42.5C 89.1667,44.5 89.3333,46.5 89.5,48.5C 89.7135,51.5267 89.0468,54.1934 87.5,56.5C 87.5,51.5 87.5,46.5 87.5,41.5 Z"/></g>
<g><path style="opacity:1" fill="#fcec5d" d="M 84.5,28.5 C 86.0295,29.0668 87.5295,29.7334 89,30.5C 89.0475,33.3294 90.0475,35.6627 92,37.5C 92.6667,44.1667 92.6667,50.8333 92,57.5C 91.0617,60.2565 89.5617,62.5899 87.5,64.5C 87.5,63.8333 87.5,63.1667 87.5,62.5C 87.5,61.8333 87.5,61.1667 87.5,60.5C 88.793,59.158 89.6264,57.4913 90,55.5C 90.6667,50.5 90.6667,45.5 90,40.5C 89.6232,39.0577 88.7899,38.0577 87.5,37.5C 87.5,37.1667 87.5,36.8333 87.5,36.5C 87.9754,33.6874 86.9754,31.6874 84.5,30.5C 84.5,29.8333 84.5,29.1667 84.5,28.5 Z"/></g>
<g><path style="opacity:1" fill="#9e9ee7" d="M 59.5,41.5 C 60.4816,44.9619 60.815,48.6286 60.5,52.5C 59.5,52.5 58.5,52.5 57.5,52.5C 57.5,50.5 57.5,48.5 57.5,46.5C 58.2679,47.2625 58.7679,48.2625 59,49.5C 59.49,48.2068 59.6567,46.8734 59.5,45.5C 59.5,44.5 59.5,43.5 59.5,42.5C 59.5,42.1667 59.5,41.8333 59.5,41.5 Z"/></g>
<g><path style="opacity:1" fill="#e6e7f9" d="M 57.5,46.5 C 57.5,48.5 57.5,50.5 57.5,52.5C 56.7321,51.7375 56.2321,50.7375 56,49.5C 53.1667,52.3333 50.3333,55.1667 47.5,58C 45.8659,58.4935 44.1992,58.6602 42.5,58.5C 42.1568,56.5168 42.8235,55.1834 44.5,54.5C 44.5,54.8333 44.5,55.1667 44.5,55.5C 43.1153,56.3023 43.282,56.9689 45,57.5C 45.7648,57.4301 46.2648,57.0967 46.5,56.5C 49.5,54.1667 52.1667,51.5 54.5,48.5C 54.9731,47.0937 55.9731,46.427 57.5,46.5 Z"/></g>
<g><path style="opacity:1" fill="#918fd2" d="M 53.5,46.5 C 53.3284,47.4916 53.6618,48.1583 54.5,48.5C 52.1667,51.5 49.5,54.1667 46.5,56.5C 45.5084,56.6716 44.8417,56.3382 44.5,55.5C 44.5,55.1667 44.5,54.8333 44.5,54.5C 46.1667,52.1667 48.1667,50.1667 50.5,48.5C 51.5,47.8333 52.5,47.1667 53.5,46.5 Z"/></g>
<g><path style="opacity:1" fill="#b4b3d9" d="M 44.5,55.5 C 44.8417,56.3382 45.5084,56.6716 46.5,56.5C 46.2648,57.0967 45.7648,57.4301 45,57.5C 43.282,56.9689 43.1153,56.3023 44.5,55.5 Z"/></g>
<g><path style="opacity:1" fill="#fdf398" d="M 15.5,63.5 C 16.1667,63.8333 16.8333,64.1667 17.5,64.5C 18.7232,68.0495 20.7232,71.0495 23.5,73.5C 25.5691,76.5725 28.2358,78.9059 31.5,80.5C 31.8333,80.5 32.1667,80.5 32.5,80.5C 34.2556,82.9448 36.589,84.7782 39.5,86C 49.7356,87.2054 59.7356,86.372 69.5,83.5C 66.3857,86.922 62.3857,88.422 57.5,88C 47.2105,90.037 37.8772,88.037 29.5,82C 26.7974,78.962 23.7974,76.2954 20.5,74C 18.1503,71.1315 16.4836,67.9648 15.5,64.5C 15.5,64.1667 15.5,63.8333 15.5,63.5 Z"/></g>
<g><path style="opacity:1" fill="#fffee2" d="M 23.5,73.5 C 26.7642,75.0941 29.4309,77.4275 31.5,80.5C 28.2358,78.9059 25.5691,76.5725 23.5,73.5 Z"/></g>
<g><path style="opacity:1" fill="#fefbc1" d="M 83.5,67.5 C 81.5295,73.8005 77.5295,78.1338 71.5,80.5C 76.2077,76.7934 80.2077,72.4601 83.5,67.5 Z"/></g>
<g><path style="opacity:1" fill="#fffeed" d="M 83.5,64.5 C 83.5,65.5 83.5,66.5 83.5,67.5C 80.2077,72.4601 76.2077,76.7934 71.5,80.5C 70.1667,80.8333 68.8333,81.1667 67.5,81.5C 73.4528,76.5433 78.7861,70.8767 83.5,64.5 Z"/></g>
<g><path style="opacity:1" fill="#faef80" d="M 87.5,62.5 C 87.5,63.1667 87.5,63.8333 87.5,64.5C 84.2642,73.4037 78.2642,79.737 69.5,83.5C 70.1667,82.5 70.8333,81.5 71.5,80.5C 77.5295,78.1338 81.5295,73.8005 83.5,67.5C 84.593,65.6508 85.9263,63.9842 87.5,62.5 Z"/></g>
<g><path style="opacity:1" fill="#fffccf" d="M 32.5,80.5 C 33.609,80.5569 34.609,80.8902 35.5,81.5C 39.7401,84.4427 44.5734,85.776 50,85.5C 53.1667,85.3333 56.3333,85.1667 59.5,85C 61.8791,84.2838 63.8791,83.1172 65.5,81.5C 66.1667,81.5 66.8333,81.5 67.5,81.5C 68.8333,81.1667 70.1667,80.8333 71.5,80.5C 70.8333,81.5 70.1667,82.5 69.5,83.5C 59.7356,86.372 49.7356,87.2054 39.5,86C 36.589,84.7782 34.2556,82.9448 32.5,80.5 Z"/></g>
<g><path style="opacity:1" fill="#fefef1" d="M 35.5,81.5 C 40.9736,82.6012 46.4736,83.6012 52,84.5C 56.4141,83.4248 60.9141,82.4248 65.5,81.5C 63.8791,83.1172 61.8791,84.2838 59.5,85C 56.3333,85.1667 53.1667,85.3333 50,85.5C 44.5734,85.776 39.7401,84.4427 35.5,81.5 Z"/></g>
</svg>
